<svg version="1.1" viewBox="0.0 0.0 600.0 371.0" fill="none" stroke="none" stroke-linecap="square" stroke-miterlimit="10" width="600" height="371" xmlns:xlink="http://www.w3.org/1999/xlink" xmlns="http://www.w3.org/2000/svg"><path fill="#ffffff" d="M0 0L600.0 0L600.0 371.0L0 371.0L0 0Z" fill-rule="nonzero"/><path stroke="#333333" stroke-width="1.0" stroke-linecap="butt" d="M77.5 284.5L581.5 284.5" fill-rule="nonzero"/><path stroke="#cccccc" stroke-width="1.0" stroke-linecap="butt" d="M77.5 229.5L581.5 229.5" fill-rule="nonzero"/><path stroke="#cccccc" stroke-width="1.0" stroke-linecap="butt" d="M77.5 173.5L581.5 173.5" fill-rule="nonzero"/><path stroke="#cccccc" stroke-width="1.0" stroke-linecap="butt" d="M77.5 117.5L581.5 117.5" fill-rule="nonzero"/><path stroke="#cccccc" stroke-width="1.0" stroke-linecap="butt" d="M77.5 61.5L581.5 61.5" fill-rule="nonzero"/><clipPath id="id_0"><path d="M77.55 61.916668L581.45 61.916668L581.45 284.75153L77.55 284.75153L77.55 61.916668Z" clip-rule="nonzero"/></clipPath><path stroke="#4285f4" stroke-width="2.0" stroke-linecap="butt" clip-path="url(#id_0)" d="M90.1475 240.18454C90.1475 240.18454 106.94417 148.58086 115.3425 121.34672C123.74084 94.11259 132.13916 84.20758 140.5375 76.779755C148.93584 69.35192 157.33417 76.779755 165.7325 76.779755C174.13083 76.779755 182.52916 74.30628 190.9275 76.779755C199.32584 79.25322 207.72417 89.14709 216.1225 91.62055C224.52083 94.09402 232.91917 89.14337 241.3175 91.62055C249.71584 94.09773 258.11417 101.529274 266.5125 106.483635C274.91083 111.437996 283.30917 116.39607 291.7075 121.34672C300.10583 126.29737 308.50418 133.71405 316.9025 136.18752C325.30084 138.661 333.69916 136.18752 342.0975 136.18752C350.49582 136.18752 358.89417 138.661 367.2925 136.18752C375.69083 133.71405 384.08917 123.82019 392.4875 121.34672C400.88583 118.87325 409.28418 118.87325 417.6825 121.34672C426.08084 123.82019 434.47916 133.71405 442.8775 136.18752C451.27585 138.661 459.67416 136.18752 468.0725 136.18752C476.47083 136.18752 484.86917 136.18752 493.2675 136.18752C501.66583 136.18752 510.06418 138.661 518.4625 136.18752C526.86084 133.71405 535.25916 113.91889 543.6575 121.34672C552.05585 128.77455 568.8525 180.75449 568.8525 180.75449" fill-rule="nonzero"/><path fill="#000000" fill-opacity="0.0" clip-path="url(#id_0)" d="M93.1475 240.18454C93.1475 241.8414 91.80435 243.18454 90.1475 243.18454C88.49065 243.18454 87.1475 241.8414 87.1475 240.18454C87.1475 238.5277 88.49065 237.18454 90.1475 237.18454C91.80435 237.18454 93.1475 238.5277 93.1475 240.18454Z" fill-rule="nonzero"/><path fill="#000000" fill-opacity="0.0" clip-path="url(#id_0)" d="M118.3425 121.34672C118.3425 123.00358 116.99935 124.34672 115.3425 124.34672C113.685646 124.34672 112.3425 123.00358 112.3425 121.34672C112.3425 119.689865 113.685646 118.34672 115.3425 118.34672C116.99935 118.34672 118.3425 119.689865 118.3425 121.34672Z" fill-rule="nonzero"/><path fill="#000000" fill-opacity="0.0" clip-path="url(#id_0)" d="M143.5375 76.779755C143.5375 78.43661 142.19435 79.779755 140.5375 79.779755C138.88065 79.779755 137.5375 78.43661 137.5375 76.779755C137.5375 75.122894 138.88065 73.779755 140.5375 73.779755C142.19435 73.779755 143.5375 75.122894 143.5375 76.779755Z" fill-rule="nonzero"/><path fill="#000000" fill-opacity="0.0" clip-path="url(#id_0)" d="M168.7325 76.779755C168.7325 78.43661 167.38936 79.779755 165.7325 79.779755C164.07565 79.779755 162.7325 78.43661 162.7325 76.779755C162.7325 75.122894 164.07565 73.779755 165.7325 73.779755C167.38936 73.779755 168.7325 75.122894 168.7325 76.779755Z" fill-rule="nonzero"/><path fill="#000000" fill-opacity="0.0" clip-path="url(#id_0)" d="M193.9275 76.779755C193.9275 78.43661 192.58435 79.779755 190.9275 79.779755C189.27065 79.779755 187.9275 78.43661 187.9275 76.779755C187.9275 75.122894 189.27065 73.779755 190.9275 73.779755C192.58435 73.779755 193.9275 75.122894 193.9275 76.779755Z" fill-rule="nonzero"/><path fill="#000000" fill-opacity="0.0" clip-path="url(#id_0)" d="M219.1225 91.62055C219.1225 93.277405 217.77936 94.62055 216.1225 94.62055C214.46565 94.62055 213.1225 93.277405 213.1225 91.62055C213.1225 89.9637 214.46565 88.62055 216.1225 88.62055C217.77936 88.62055 219.1225 89.9637 219.1225 91.62055Z" fill-rule="nonzero"/><path fill="#000000" fill-opacity="0.0" clip-path="url(#id_0)" d="M244.3175 91.62055C244.3175 93.277405 242.97435 94.62055 241.3175 94.62055C239.66064 94.62055 238.3175 93.277405 238.3175 91.62055C238.3175 89.9637 239.66064 88.62055 241.3175 88.62055C242.97435 88.62055 244.3175 89.9637 244.3175 91.62055Z" fill-rule="nonzero"/><path fill="#000000" fill-opacity="0.0" clip-path="url(#id_0)" d="M269.5125 106.483635C269.5125 108.14049 268.16934 109.483635 266.5125 109.483635C264.85565 109.483635 263.5125 108.14049 263.5125 106.483635C263.5125 104.82678 264.85565 103.483635 266.5125 103.483635C268.16934 103.483635 269.5125 104.82678 269.5125 106.483635Z" fill-rule="nonzero"/><path fill="#000000" fill-opacity="0.0" clip-path="url(#id_0)" d="M294.7075 121.34672C294.7075 123.00358 293.36435 124.34672 291.7075 124.34672C290.05066 124.34672 288.7075 123.00358 288.7075 121.34672C288.7075 119.689865 290.05066 118.34672 291.7075 118.34672C293.36435 118.34672 294.7075 119.689865 294.7075 121.34672Z" fill-rule="nonzero"/><path fill="#000000" fill-opacity="0.0" clip-path="url(#id_0)" d="M319.9025 136.18752C319.9025 137.84438 318.55936 139.18752 316.9025 139.18752C315.24564 139.18752 313.9025 137.84438 313.9025 136.18752C313.9025 134.53067 315.24564 133.18752 316.9025 133.18752C318.55936 133.18752 319.9025 134.53067 319.9025 136.18752Z" fill-rule="nonzero"/><path fill="#000000" fill-opacity="0.0" clip-path="url(#id_0)" d="M345.0975 136.18752C345.0975 137.84438 343.75436 139.18752 342.0975 139.18752C340.44064 139.18752 339.0975 137.84438 339.0975 136.18752C339.0975 134.53067 340.44064 133.18752 342.0975 133.18752C343.75436 133.18752 345.0975 134.53067 345.0975 136.18752Z" fill-rule="nonzero"/><path fill="#000000" fill-opacity="0.0" clip-path="url(#id_0)" d="M370.2925 136.18752C370.2925 137.84438 368.94934 139.18752 367.2925 139.18752C365.63565 139.18752 364.2925 137.84438 364.2925 136.18752C364.2925 134.53067 365.63565 133.18752 367.2925 133.18752C368.94934 133.18752 370.2925 134.53067 370.2925 136.18752Z" fill-rule="nonzero"/><path fill="#000000" fill-opacity="0.0" clip-path="url(#id_0)" d="M395.4875 121.34672C395.4875 123.00358 394.14435 124.34672 392.4875 124.34672C390.83066 124.34672 389.4875 123.00358 389.4875 121.34672C389.4875 119.689865 390.83066 118.34672 392.4875 118.34672C394.14435 118.34672 395.4875 119.689865 395.4875 121.34672Z" fill-rule="nonzero"/><path fill="#000000" fill-opacity="0.0" clip-path="url(#id_0)" d="M420.6825 121.34672C420.6825 123.00358 419.33936 124.34672 417.6825 124.34672C416.02563 124.34672 414.6825 123.00358 414.6825 121.34672C414.6825 119.689865 416.02563 118.34672 417.6825 118.34672C419.33936 118.34672 420.6825 119.689865 420.6825 121.34672Z" fill-rule="nonzero"/><path fill="#000000" fill-opacity="0.0" clip-path="url(#id_0)" d="M445.8775 136.18752C445.8775 137.84438 444.53436 139.18752 442.8775 139.18752C441.22064 139.18752 439.8775 137.84438 439.8775 136.18752C439.8775 134.53067 441.22064 133.18752 442.8775 133.18752C444.53436 133.18752 445.8775 134.53067 445.8775 136.18752Z" fill-rule="nonzero"/><path fill="#000000" fill-opacity="0.0" clip-path="url(#id_0)" d="M471.0725 136.18752C471.0725 137.84438 469.72934 139.18752 468.0725 139.18752C466.41565 139.18752 465.0725 137.84438 465.0725 136.18752C465.0725 134.53067 466.41565 133.18752 468.0725 133.18752C469.72934 133.18752 471.0725 134.53067 471.0725 136.18752Z" fill-rule="nonzero"/><path fill="#000000" fill-opacity="0.0" clip-path="url(#id_0)" d="M496.2675 136.18752C496.2675 137.84438 494.92435 139.18752 493.2675 139.18752C491.61066 139.18752 490.2675 137.84438 490.2675 136.18752C490.2675 134.53067 491.61066 133.18752 493.2675 133.18752C494.92435 133.18752 496.2675 134.53067 496.2675 136.18752Z" fill-rule="nonzero"/><path fill="#000000" fill-opacity="0.0" clip-path="url(#id_0)" d="M521.4625 136.18752C521.4625 137.84438 520.1194 139.18752 518.4625 139.18752C516.80566 139.18752 515.4625 137.84438 515.4625 136.18752C515.4625 134.53067 516.80566 133.18752 518.4625 133.18752C520.1194 133.18752 521.4625 134.53067 521.4625 136.18752Z" fill-rule="nonzero"/><path fill="#000000" fill-opacity="0.0" clip-path="url(#id_0)" d="M546.6575 121.34672C546.6575 123.00358 545.31433 124.34672 543.6575 124.34672C542.0007 124.34672 540.6575 123.00358 540.6575 121.34672C540.6575 119.689865 542.0007 118.34672 543.6575 118.34672C545.31433 118.34672 546.6575 119.689865 546.6575 121.34672Z" fill-rule="nonzero"/><path fill="#000000" fill-opacity="0.0" clip-path="url(#id_0)" d="M571.8525 180.75449C571.8525 182.41135 570.50934 183.75449 568.8525 183.75449C567.1956 183.75449 565.8525 182.41135 565.8525 180.75449C565.8525 179.09764 567.1956 177.75449 568.8525 177.75449C570.50934 177.75449 571.8525 179.09764 571.8525 180.75449Z" fill-rule="nonzero"/><path fill="#000000" d="M270.92188 349.45L270.92188 340.85626L272.07812 340.85626L276.59375 347.60626L276.59375 340.85626L277.6875 340.85626L277.6875 349.45L276.51562 349.45L272.0 342.7L272.0 349.45L270.92188 349.45ZM283.875 349.45L283.875 348.52814Q283.14062 349.59064 281.89062 349.59064Q281.34375 349.59064 280.85938 349.3875Q280.39062 349.16876 280.15625 348.85626Q279.92188 348.52814 279.82812 348.0594Q279.76562 347.7625 279.76562 347.075L279.76562 343.23126L280.82812 343.23126L280.82812 346.6844Q280.82812 347.4969 280.89062 347.79376Q280.98438 348.2 281.29688 348.45Q281.625 348.6844 282.10938 348.6844Q282.57812 348.6844 282.98438 348.45Q283.40625 348.2 283.57812 347.77814Q283.76562 347.35626 283.76562 346.5594L283.76562 343.23126L284.8125 343.23126L284.8125 349.45L283.875 349.45ZM286.79688 349.45L286.79688 343.23126L287.73438 343.23126L287.73438 344.10626Q288.03125 343.6375 288.51562 343.3719Q289.0 343.09064 289.625 343.09064Q290.3125 343.09064 290.75 343.3719Q291.20312 343.65314 291.375 344.16876Q292.125 343.09064 293.29688 343.09064Q294.23438 343.09064 294.71875 343.60626Q295.21875 344.10626 295.21875 345.1844L295.21875 349.45L294.17188 349.45L294.17188 345.52814Q294.17188 344.90314 294.0625 344.6219Q293.96875 344.34064 293.70312 344.16876Q293.4375 343.9969 293.0625 343.9969Q292.40625 343.9969 291.96875 344.4344Q291.54688 344.8719 291.54688 345.84064L291.54688 349.45L290.48438 349.45L290.48438 345.40314Q290.48438 344.7 290.21875 344.35626Q289.96875 343.9969 289.39062 343.9969Q288.9375 343.9969 288.5625 344.23126Q288.1875 344.46564 288.01562 344.91876Q287.84375 345.3719 287.84375 346.21564L287.84375 349.45L286.79688 349.45ZM298.76562 349.45L297.78125 349.45L297.78125 340.85626L298.84375 340.85626L298.84375 343.91876Q299.51562 343.09064 300.54688 343.09064Q301.125 343.09064 301.625 343.325Q302.14062 343.54376 302.46875 343.96564Q302.8125 344.3875 303.0 344.98126Q303.1875 345.575 303.1875 346.2469Q303.1875 347.84064 302.39062 348.71564Q301.59375 349.59064 300.5 349.59064Q299.39062 349.59064 298.76562 348.66876L298.76562 349.45ZM298.75 346.29376Q298.75 347.40314 299.0625 347.90314Q299.5625 348.71564 300.40625 348.71564Q301.09375 348.71564 301.59375 348.1219Q302.10938 347.52814 302.10938 346.325Q302.10938 345.10626 301.625 344.52814Q301.14062 343.95 300.45312 343.95Q299.76562 343.95 299.25 344.5594Q298.75 345.15314 298.75 346.29376ZM309.04688 347.45L310.14062 347.575Q309.89062 348.52814 309.1875 349.0594Q308.48438 349.59064 307.40625 349.59064Q306.04688 349.59064 305.23438 348.7469Q304.4375 347.90314 304.4375 346.3875Q304.4375 344.825 305.25 343.96564Q306.0625 343.09064 307.34375 343.09064Q308.59375 343.09064 309.375 343.9344Q310.17188 344.77814 310.17188 346.325Q310.17188 346.41876 310.17188 346.60626L305.53125 346.60626Q305.59375 347.6375 306.10938 348.1844Q306.625 348.71564 307.40625 348.71564Q307.98438 348.71564 308.39062 348.41876Q308.8125 348.10626 309.04688 347.45ZM305.59375 345.7469L309.0625 345.7469Q309.0 344.95 308.67188 344.5594Q308.15625 343.95 307.35938 343.95Q306.625 343.95 306.125 344.4344Q305.64062 344.91876 305.59375 345.7469ZM311.78125 349.45L311.78125 343.23126L312.73438 343.23126L312.73438 344.16876Q313.09375 343.5125 313.39062 343.3094Q313.70312 343.09064 314.07812 343.09064Q314.60938 343.09064 315.15625 343.41876L314.79688 344.40314Q314.40625 344.16876 314.03125 344.16876Q313.67188 344.16876 313.39062 344.3875Q313.125 344.59064 313.01562 344.96564Q312.82812 345.52814 312.82812 346.1844L312.82812 349.45L311.78125 349.45ZM318.40625 346.34064Q318.40625 344.60626 319.35938 343.77814Q320.15625 343.09064 321.3125 343.09064Q322.59375 343.09064 323.40625 343.9344Q324.23438 344.7625 324.23438 346.2469Q324.23438 347.45 323.875 348.1375Q323.51562 348.825 322.8125 349.21564Q322.125 349.59064 321.3125 349.59064Q320.01562 349.59064 319.20312 348.7625Q318.40625 347.91876 318.40625 346.34064ZM319.48438 346.34064Q319.48438 347.52814 320.0 348.1219Q320.53125 348.71564 321.3125 348.71564Q322.10938 348.71564 322.625 348.1219Q323.14062 347.52814 323.14062 346.3094Q323.14062 345.15314 322.60938 344.5594Q322.09375 343.96564 321.3125 343.96564Q320.53125 343.96564 320.0 344.5594Q319.48438 345.1375 319.48438 346.34064ZM326.04688 349.45L326.04688 344.04376L325.10938 344.04376L325.10938 343.23126L326.04688 343.23126L326.04688 342.5594Q326.04688 341.9344 326.15625 341.6375Q326.3125 341.21564 326.6875 340.96564Q327.07812 340.71564 327.76562 340.71564Q328.21875 340.71564 328.75 340.825L328.59375 341.73126Q328.26562 341.6844 327.96875 341.6844Q327.48438 341.6844 327.28125 341.8875Q327.09375 342.09064 327.09375 342.65314L327.09375 343.23126L328.3125 343.23126L328.3125 344.04376L327.09375 344.04376L327.09375 349.45L326.04688 349.45ZM332.9375 349.45L331.03125 343.23126L332.125 343.23126L333.10938 346.825L333.48438 348.15314Q333.51562 348.0594 333.8125 346.8719L334.79688 343.23126L335.875 343.23126L336.8125 346.84064L337.125 348.02814L337.48438 346.825L338.54688 343.23126L339.57812 343.23126L337.625 349.45L336.53125 349.45L335.54688 345.71564L335.29688 344.66876L334.04688 349.45L332.9375 349.45ZM340.40625 346.34064Q340.40625 344.60626 341.35938 343.77814Q342.15625 343.09064 343.3125 343.09064Q344.59375 343.09064 345.40625 343.9344Q346.23438 344.7625 346.23438 346.2469Q346.23438 347.45 345.875 348.1375Q345.51562 348.825 344.8125 349.21564Q344.125 349.59064 343.3125 349.59064Q342.01562 349.59064 341.20312 348.7625Q340.40625 347.91876 340.40625 346.34064ZM341.48438 346.34064Q341.48438 347.52814 342.0 348.1219Q342.53125 348.71564 343.3125 348.71564Q344.10938 348.71564 344.625 348.1219Q345.14062 347.52814 345.14062 346.3094Q345.14062 345.15314 344.60938 344.5594Q344.09375 343.96564 343.3125 343.96564Q342.53125 343.96564 342.0 344.5594Q341.48438 345.1375 341.48438 346.34064ZM347.78125 349.45L347.78125 343.23126L348.73438 343.23126L348.73438 344.16876Q349.09375 343.5125 349.39062 343.3094Q349.70312 343.09064 350.07812 343.09064Q350.60938 343.09064 351.15625 343.41876L350.79688 344.40314Q350.40625 344.16876 350.03125 344.16876Q349.67188 344.16876 349.39062 344.3875Q349.125 344.59064 349.01562 344.96564Q348.82812 345.52814 348.82812 346.1844L348.82812 349.45L347.78125 349.45ZM355.82812 349.45L355.82812 348.66876Q355.23438 349.59064 354.09375 349.59064Q353.34375 349.59064 352.71875 349.1844Q352.09375 348.7625 351.75 348.02814Q351.40625 347.29376 351.40625 346.34064Q351.40625 345.41876 351.71875 344.65314Q352.03125 343.8875 352.65625 343.4969Q353.28125 343.09064 354.04688 343.09064Q354.60938 343.09064 355.04688 343.325Q355.48438 343.5594 355.76562 343.9344L355.76562 340.85626L356.8125 340.85626L356.8125 349.45L355.82812 349.45ZM352.5 346.34064Q352.5 347.54376 353.0 348.1375Q353.5 348.71564 354.1875 348.71564Q354.875 348.71564 355.35938 348.15314Q355.84375 347.59064 355.84375 346.4344Q355.84375 345.15314 355.34375 344.5594Q354.85938 343.96564 354.14062 343.96564Q353.4375 343.96564 352.96875 344.54376Q352.5 345.10626 352.5 346.34064ZM361.79688 351.84064L361.79688 343.23126L362.75 343.23126L362.75 344.02814Q363.09375 343.5594 363.51562 343.325Q363.95312 343.09064 364.5625 343.09064Q365.35938 343.09064 365.96875 343.4969Q366.57812 343.90314 366.875 344.65314Q367.1875 345.40314 367.1875 346.29376Q367.1875 347.2469 366.84375 348.0125Q366.51562 348.77814 365.85938 349.1844Q365.20312 349.59064 364.48438 349.59064Q363.95312 349.59064 363.53125 349.3719Q363.10938 349.1375 362.84375 348.8094L362.84375 351.84064L361.79688 351.84064ZM362.75 346.3719Q362.75 347.575 363.23438 348.15314Q363.71875 348.71564 364.40625 348.71564Q365.10938 348.71564 365.60938 348.1219Q366.10938 347.52814 366.10938 346.27814Q366.10938 345.09064 365.625 344.5125Q365.14062 343.91876 364.45312 343.91876Q363.78125 343.91876 363.26562 344.54376Q362.75 345.16876 362.75 346.3719ZM372.85938 348.6844Q372.26562 349.1844 371.71875 349.3875Q371.1875 349.59064 370.5625 349.59064Q369.53125 349.59064 368.98438 349.09064Q368.4375 348.59064 368.4375 347.8094Q368.4375 347.35626 368.64062 346.98126Q368.84375 346.59064 369.1875 346.3719Q369.53125 346.1375 369.95312 346.02814Q370.25 345.9344 370.89062 345.85626Q372.15625 345.71564 372.76562 345.4969Q372.76562 345.27814 372.76562 345.23126Q372.76562 344.575 372.46875 344.3094Q372.0625 343.96564 371.26562 343.96564Q370.53125 343.96564 370.17188 344.23126Q369.8125 344.48126 369.64062 345.1375L368.60938 344.9969Q368.75 344.34064 369.07812 343.9344Q369.40625 343.52814 370.01562 343.3094Q370.625 343.09064 371.42188 343.09064Q372.21875 343.09064 372.71875 343.27814Q373.21875 343.46564 373.45312 343.7469Q373.6875 344.02814 373.78125 344.46564Q373.82812 344.73126 373.82812 345.4344L373.82812 346.84064Q373.82812 348.3094 373.89062 348.7Q373.96875 349.09064 374.17188 349.45L373.0625 349.45Q372.90625 349.1219 372.85938 348.6844ZM372.76562 346.325Q372.1875 346.5594 371.04688 346.73126Q370.39062 346.825 370.125 346.95Q369.85938 347.0594 369.70312 347.27814Q369.5625 347.4969 369.5625 347.77814Q369.5625 348.2 369.875 348.48126Q370.20312 348.7625 370.8125 348.7625Q371.42188 348.7625 371.89062 348.4969Q372.375 348.23126 372.59375 347.7625Q372.76562 347.40314 372.76562 346.71564L372.76562 346.325ZM375.79688 342.075L375.79688 340.85626L376.85938 340.85626L376.85938 342.075L375.79688 342.075ZM375.79688 349.45L375.79688 343.23126L376.85938 343.23126L376.85938 349.45L375.79688 349.45ZM378.78125 349.45L378.78125 343.23126L379.73438 343.23126L379.73438 344.16876Q380.09375 343.5125 380.39062 343.3094Q380.70312 343.09064 381.07812 343.09064Q381.60938 343.09064 382.15625 343.41876L381.79688 344.40314Q381.40625 344.16876 381.03125 344.16876Q380.67188 344.16876 380.39062 344.3875Q380.125 344.59064 380.01562 344.96564Q379.82812 345.52814 379.82812 346.1844L379.82812 349.45L378.78125 349.45ZM382.375 347.59064L383.40625 347.4344Q383.5 348.0594 383.89062 348.3875Q384.29688 348.71564 385.03125 348.71564Q385.75 348.71564 386.09375 348.4344Q386.45312 348.1375 386.45312 347.73126Q386.45312 347.3719 386.14062 347.16876Q385.92188 347.02814 385.0625 346.8094Q383.90625 346.5125 383.45312 346.3094Q383.01562 346.09064 382.78125 345.71564Q382.54688 345.34064 382.54688 344.8719Q382.54688 344.46564 382.73438 344.10626Q382.92188 343.7469 383.25 343.5125Q383.5 343.34064 383.92188 343.21564Q384.34375 343.09064 384.84375 343.09064Q385.5625 343.09064 386.10938 343.3094Q386.67188 343.5125 386.9375 343.8719Q387.20312 344.23126 387.29688 344.825L386.26562 344.96564Q386.20312 344.4969 385.85938 344.23126Q385.53125 343.95 384.90625 343.95Q384.1875 343.95 383.875 344.2Q383.5625 344.4344 383.5625 344.7625Q383.5625 344.96564 383.6875 345.1219Q383.82812 345.29376 384.09375 345.40314Q384.25 345.46564 385.03125 345.66876Q386.15625 345.98126 386.59375 346.16876Q387.03125 346.35626 387.28125 346.71564Q387.53125 347.075 387.53125 347.6219Q387.53125 348.15314 387.21875 348.6219Q386.92188 349.075 386.34375 349.34064Q385.76562 349.59064 385.03125 349.59064Q383.8125 349.59064 383.17188 349.09064Q382.54688 348.575 382.375 347.59064Z" fill-rule="nonzero"/><path fill="#000000" d="M26.784388 203.13646L26.690638 202.07396Q27.346888 201.99583 27.753138 201.71458Q28.159388 201.43333 28.425013 200.85521Q28.675013 200.26146 28.675013 199.52708Q28.675013 198.88646 28.487513 198.38646Q28.284388 197.88646 27.956263 197.65208Q27.612513 197.40208 27.221888 197.40208Q26.815638 197.40208 26.518763 197.63646Q26.206263 197.87083 26.003138 198.40208Q25.862513 198.76146 25.581263 199.94896Q25.300013 201.12083 25.050013 201.58958Q24.721888 202.21458 24.253138 202.51146Q23.768763 202.80833 23.175013 202.80833Q22.534388 202.80833 21.971888 202.44896Q21.393763 202.07396 21.112513 201.37083Q20.815638 200.65208 20.815638 199.79271Q20.815638 198.83958 21.128138 198.10521Q21.425013 197.37083 22.034388 196.98021Q22.628138 196.58958 23.378138 196.55833L23.456263 197.65208Q22.643763 197.74583 22.237513 198.26146Q21.815638 198.76146 21.815638 199.74583Q21.815638 200.77708 22.190638 201.24583Q22.565638 201.71458 23.096888 201.71458Q23.565638 201.71458 23.862513 201.38646Q24.159388 201.05833 24.471888 199.68333Q24.784388 198.29271 25.018763 197.77708Q25.378138 197.02708 25.909388 196.66771Q26.425013 196.30833 27.128138 196.30833Q27.815638 196.30833 28.425013 196.69896Q29.018763 197.08958 29.362513 197.82396Q29.690638 198.55833 29.690638 199.48021Q29.690638 200.65208 29.362513 201.44896Q29.018763 202.23021 28.331263 202.68333Q27.643763 203.12083 26.784388 203.13646ZM27.268763 190.82396L27.409388 189.79271Q28.471888 189.96458 29.081263 190.66771Q29.690638 191.37083 29.690638 192.38646Q29.690638 193.66771 28.862513 194.44896Q28.018763 195.21458 26.456263 195.21458Q25.456263 195.21458 24.706263 194.88646Q23.940638 194.54271 23.565638 193.87083Q23.190638 193.18333 23.190638 192.37083Q23.190638 191.37083 23.706263 190.73021Q24.206263 190.07396 25.159388 189.88646L25.315638 190.91771Q24.690638 191.05833 24.378138 191.43333Q24.050013 191.80833 24.050013 192.33958Q24.050013 193.13646 24.628138 193.63646Q25.190638 194.13646 26.425013 194.13646Q27.690638 194.13646 28.253138 193.65208Q28.815638 193.16771 28.815638 192.40208Q28.815638 191.77708 28.440638 191.37083Q28.065638 190.94896 27.268763 190.82396ZM26.440638 189.27708Q24.706263 189.27708 23.878138 188.32396Q23.190638 187.52708 23.190638 186.37083Q23.190638 185.08958 24.034388 184.27708Q24.862513 183.44896 26.346888 183.44896Q27.550013 183.44896 28.237513 183.80833Q28.925013 184.16771 29.315638 184.87083Q29.690638 185.55833 29.690638 186.37083Q29.690638 187.66771 28.862513 188.48021Q28.018763 189.27708 26.440638 189.27708ZM26.440638 188.19896Q27.628138 188.19896 28.221888 187.68333Q28.815638 187.15208 28.815638 186.37083Q28.815638 185.57396 28.221888 185.05833Q27.628138 184.54271 26.409388 184.54271Q25.253138 184.54271 24.659388 185.07396Q24.065638 185.58958 24.065638 186.37083Q24.065638 187.15208 24.659388 187.68333Q25.237513 188.19896 26.440638 188.19896ZM29.550013 181.90208L23.331263 181.90208L23.331263 180.94896L24.268763 180.94896Q23.612513 180.58958 23.409388 180.29271Q23.190638 179.98021 23.190638 179.60521Q23.190638 179.07396 23.518763 178.52708L24.503138 178.88646Q24.268763 179.27708 24.268763 179.65208Q24.268763 180.01146 24.487513 180.29271Q24.690638 180.55833 25.065638 180.66771Q25.628138 180.85521 26.284388 180.85521L29.550013 180.85521L29.550013 181.90208ZM27.550013 173.63646L27.675013 172.54271Q28.628138 172.79271 29.159388 173.49583Q29.690638 174.19896 29.690638 175.27708Q29.690638 176.63646 28.846888 177.44896Q28.003138 178.24583 26.487513 178.24583Q24.925013 178.24583 24.065638 177.43333Q23.190638 176.62083 23.190638 175.33958Q23.190638 174.08958 24.034388 173.30833Q24.878138 172.51146 26.425013 172.51146Q26.518763 172.51146 26.706263 172.51146L26.706263 177.15208Q27.737513 177.08958 28.284388 176.57396Q28.815638 176.05833 28.815638 175.27708Q28.815638 174.69896 28.518763 174.29271Q28.206263 173.87083 27.550013 173.63646ZM25.846888 177.08958L25.846888 173.62083Q25.050013 173.68333 24.659388 174.01146Q24.050013 174.52708 24.050013 175.32396Q24.050013 176.05833 24.534388 176.55833Q25.018763 177.04271 25.846888 177.08958Z" fill-rule="nonzero"/><path fill="#000000" d="M65.05 284.51715Q65.05 282.9859 65.3625 282.06403Q65.675 281.12653 66.28438 280.62653Q66.90938 280.12653 67.84688 280.12653Q68.53438 280.12653 69.05 280.40778Q69.58125 280.68903 69.925 281.22028Q70.26875 281.7359 70.45625 282.4859Q70.64375 283.2359 70.64375 284.51715Q70.64375 286.03278 70.33125 286.95465Q70.03438 287.87653 69.40938 288.39215Q68.8 288.89215 67.84688 288.89215Q66.6125 288.89215 65.89375 288.00153Q65.05 286.93903 65.05 284.51715ZM66.12813 284.51715Q66.12813 286.62653 66.62813 287.32965Q67.12813 288.03278 67.84688 288.03278Q68.58125 288.03278 69.06563 287.32965Q69.56563 286.62653 69.56563 284.51715Q69.56563 282.39215 69.06563 281.70465Q68.58125 281.00153 67.83125 281.00153Q67.1125 281.00153 66.675 281.6109Q66.12813 282.39215 66.12813 284.51715Z" fill-rule="nonzero"/><path fill="#000000" d="M63.596874 232.02718L63.596874 233.0428L57.909374 233.0428Q57.909374 232.6678 58.034374 232.30843Q58.253124 231.7303 58.721874 231.1678Q59.20625 230.6053 60.1125 229.87093Q61.51875 228.71468 62.003124 228.0428Q62.503124 227.37093 62.503124 226.77718Q62.503124 226.15218 62.05 225.7303Q61.596874 225.2928 60.878124 225.2928Q60.1125 225.2928 59.659374 225.74593Q59.20625 226.19905 59.190624 227.01155L58.1125 226.90218Q58.221874 225.68343 58.940624 225.05843Q59.675 224.4178 60.909374 224.4178Q62.14375 224.4178 62.8625 225.1053Q63.58125 225.7928 63.58125 226.80843Q63.58125 227.32405 63.3625 227.82405Q63.159374 228.30843 62.659374 228.87093Q62.175 229.4178 61.05 230.37093Q60.096874 231.1678 59.815624 231.46468Q59.55 231.74593 59.378124 232.02718L63.596874 232.02718ZM65.05 230.7928L66.15938 230.69905Q66.28438 231.51155 66.72188 231.9178Q67.175 232.32405 67.81563 232.32405Q68.56563 232.32405 69.09688 231.74593Q69.62813 231.1678 69.62813 230.2303Q69.62813 229.32405 69.1125 228.80843Q68.6125 228.27718 67.78438 228.27718Q67.28438 228.27718 66.8625 228.51155Q66.45625 228.74593 66.22188 229.1053L65.2375 228.9803L66.06563 224.57405L70.34688 224.57405L70.34688 225.57405L66.90938 225.57405L66.45625 227.88655Q67.22188 227.33968 68.06563 227.33968Q69.19063 227.33968 69.95625 228.12093Q70.7375 228.90218 70.7375 230.13655Q70.7375 231.2928 70.06563 232.15218Q69.2375 233.18343 67.81563 233.18343Q66.64375 233.18343 65.89375 232.52718Q65.15938 231.87093 65.05 230.7928Z" fill-rule="nonzero"/><path fill="#000000" d="M58.05 175.08409L59.159374 174.99034Q59.284374 175.80284 59.721874 176.20909Q60.175 176.61534 60.815624 176.61534Q61.565624 176.61534 62.096874 176.03722Q62.628124 175.45909 62.628124 174.52159Q62.628124 173.61534 62.1125 173.09972Q61.6125 172.56847 60.784374 172.56847Q60.284374 172.56847 59.8625 172.80284Q59.45625 173.03722 59.221874 173.39659L58.2375 173.27159L59.065624 168.86534L63.346874 168.86534L63.346874 169.86534L59.909374 169.86534L59.45625 172.17784Q60.221874 171.63097 61.065624 171.63097Q62.190624 171.63097 62.95625 172.41222Q63.7375 173.19347 63.7375 174.42784Q63.7375 175.58409 63.065624 176.44347Q62.2375 177.47472 60.815624 177.47472Q59.64375 177.47472 58.89375 176.81847Q58.159374 176.16222 58.05 175.08409ZM65.05 173.09972Q65.05 171.56847 65.3625 170.64659Q65.675 169.70909 66.28438 169.20909Q66.90938 168.70909 67.84688 168.70909Q68.53438 168.70909 69.05 168.99034Q69.58125 169.27159 69.925 169.80284Q70.26875 170.31847 70.45625 171.06847Q70.64375 171.81847 70.64375 173.09972Q70.64375 174.61534 70.33125 175.53722Q70.03438 176.45909 69.40938 176.97472Q68.8 177.47472 67.84688 177.47472Q66.6125 177.47472 65.89375 176.58409Q65.05 175.52159 65.05 173.09972ZM66.12813 173.09972Q66.12813 175.20909 66.62813 175.91222Q67.12813 176.61534 67.84688 176.61534Q68.58125 176.61534 69.06563 175.91222Q69.56563 175.20909 69.56563 173.09972Q69.56563 170.97472 69.06563 170.28722Q68.58125 169.58409 67.83125 169.58409Q67.1125 169.58409 66.675 170.19347Q66.12813 170.97472 66.12813 173.09972Z" fill-rule="nonzero"/><path fill="#000000" d="M58.1125 114.15663L58.1125 113.14101L63.675 113.14101L63.675 113.96913Q62.8625 114.84413 62.05 116.29726Q61.253124 117.73476 60.815624 119.26601Q60.4875 120.34413 60.409374 121.62538L59.315624 121.62538Q59.33125 120.60976 59.70625 119.17226Q60.096874 117.73476 60.8 116.40663Q61.51875 115.07851 62.33125 114.15663L58.1125 114.15663ZM65.05 119.37538L66.15938 119.28163Q66.28438 120.09413 66.72188 120.50038Q67.175 120.90663 67.81563 120.90663Q68.56563 120.90663 69.09688 120.32851Q69.62813 119.75038 69.62813 118.81288Q69.62813 117.90663 69.1125 117.39101Q68.6125 116.85976 67.78438 116.85976Q67.28438 116.85976 66.8625 117.09413Q66.45625 117.32851 66.22188 117.68788L65.2375 117.56288L66.06563 113.15663L70.34688 113.15663L70.34688 114.15663L66.90938 114.15663L66.45625 116.46913Q67.22188 115.92226 68.06563 115.92226Q69.19063 115.92226 69.95625 116.70351Q70.7375 117.48476 70.7375 118.71913Q70.7375 119.87538 70.06563 120.73476Q69.2375 121.76601 67.81563 121.76601Q66.64375 121.76601 65.89375 121.10976Q65.15938 120.45351 65.05 119.37538Z" fill-rule="nonzero"/><path fill="#000000" d="M55.01875 65.916664L53.971874 65.916664L53.971874 59.197914Q53.58125 59.55729 52.95625 59.93229Q52.346874 60.291664 51.8625 60.46354L51.8625 59.447914Q52.7375 59.02604 53.39375 58.447914Q54.065624 57.854164 54.346874 57.291664L55.01875 57.291664L55.01875 65.916664ZM58.05 61.68229Q58.05 60.15104 58.3625 59.229164Q58.675 58.291664 59.284374 57.791664Q59.909374 57.291664 60.846874 57.291664Q61.534374 57.291664 62.05 57.572914Q62.58125 57.854164 62.925 58.385414Q63.26875 58.90104 63.45625 59.65104Q63.64375 60.40104 63.64375 61.68229Q63.64375 63.197914 63.33125 64.11979Q63.034374 65.041664 62.409374 65.55729Q61.8 66.05729 60.846874 66.05729Q59.6125 66.05729 58.89375 65.166664Q58.05 64.104164 58.05 61.68229ZM59.128124 61.68229Q59.128124 63.791664 59.628124 64.49479Q60.128124 65.197914 60.846874 65.197914Q61.58125 65.197914 62.065624 64.49479Q62.565624 63.791664 62.565624 61.68229Q62.565624 59.55729 62.065624 58.86979Q61.58125 58.166664 60.83125 58.166664Q60.1125 58.166664 59.675 58.77604Q59.128124 59.55729 59.128124 61.68229ZM65.05 61.68229Q65.05 60.15104 65.3625 59.229164Q65.675 58.291664 66.28438 57.791664Q66.90938 57.291664 67.84688 57.291664Q68.53438 57.291664 69.05 57.572914Q69.58125 57.854164 69.925 58.385414Q70.26875 58.90104 70.45625 59.65104Q70.64375 60.40104 70.64375 61.68229Q70.64375 63.197914 70.33125 64.11979Q70.03438 65.041664 69.40938 65.55729Q68.8 66.05729 67.84688 66.05729Q66.6125 66.05729 65.89375 65.166664Q65.05 64.104164 65.05 61.68229ZM66.12813 61.68229Q66.12813 63.791664 66.62813 64.49479Q67.12813 65.197914 67.84688 65.197914Q68.58125 65.197914 69.06563 64.49479Q69.56563 63.791664 69.56563 61.68229Q69.56563 59.55729 69.06563 58.86979Q68.58125 58.166664 67.83125 58.166664Q67.1125 58.166664 66.675 58.77604Q66.12813 59.55729 66.12813 61.68229Z" fill-rule="nonzero"/><path fill="#000000" d="M91.73848 301.53488L92.456635 300.68414Q93.11955 301.1703 93.71617 301.1482Q94.32384 301.11505 94.77683 300.66205Q95.30716 300.1317 95.27402 299.34726Q95.24087 298.56284 94.57796 297.8999Q93.93714 297.2591 93.20794 297.2591Q92.47874 297.237 91.89316 297.82257Q91.539604 298.17612 91.40703 298.64017Q91.28549 299.09317 91.37388 299.513L90.58943 300.12067L88.05932 296.4194L91.08662 293.39212L91.793724 294.0992L89.363045 296.5299L90.67782 298.48547Q90.832504 297.5574 91.42912 296.9608Q92.22462 296.16528 93.31842 296.17633Q94.42328 296.17633 95.29611 297.04916Q96.1137 297.86676 96.246284 298.94952Q96.389915 300.2643 95.3845 301.2697Q94.55586 302.09836 93.56149 302.16464Q92.57817 302.2199 91.73848 301.53488Z" fill-rule="nonzero"/><path fill="#000000" d="M116.38106 305.2693L115.6408 306.00955L110.88993 301.25867Q110.86783 301.789 110.691055 302.49612Q110.514275 303.18112 110.293304 303.64517L109.57515 302.927Q109.89556 302.00998 109.9508 301.13715Q110.00604 300.24222 109.80717 299.6456L110.28226 299.1705L116.38106 305.2693ZM115.53032 300.1317Q114.447556 299.04895 114.01666 298.17612Q113.57472 297.29224 113.65206 296.5078Q113.740456 295.7123 114.403366 295.04938Q114.8895 294.56326 115.45298 294.39752Q116.027504 294.22076 116.64622 294.35333Q117.25389 294.47485 117.9168 294.87262Q118.57971 295.27036 119.485695 296.17633Q120.5574 297.24805 120.9883 298.12088Q121.43024 298.98267 121.3529 299.7892Q121.27556 300.57367 120.6016 301.24762Q119.72876 302.12045 118.59076 301.99893Q117.24284 301.84424 115.53032 300.1317ZM116.29266 299.3694Q117.78422 300.86093 118.63496 301.00455Q119.485695 301.1482 119.99393 300.63995Q120.51321 300.12067 120.35853 299.28098Q120.2149 298.43024 118.72334 296.9387Q117.22074 295.4361 116.38106 295.3035Q115.54137 295.14883 115.01103 295.67917Q114.5028 296.18738 114.62434 296.92764Q114.79006 297.86676 116.29266 299.3694Z" fill-rule="nonzero"/><path fill="#000000" d="M141.57607 305.2693L140.8358 306.00955L136.08493 301.25867Q136.06284 301.789 135.88606 302.4961Q135.70929 303.18112 135.48831 303.64514L134.77016 302.927Q135.09056 302.00998 135.14581 301.13715Q135.20105 300.2422 135.00218 299.64557L135.47726 299.1705L141.57607 305.2693ZM142.12848 301.53488L142.84665 300.68414Q143.50955 301.1703 144.10617 301.1482Q144.71385 301.11502 145.16684 300.66205Q145.69716 300.1317 145.66402 299.34726Q145.63087 298.56284 144.96796 297.8999Q144.32715 297.2591 143.59795 297.2591Q142.86874 297.237 142.28317 297.82257Q141.92961 298.17612 141.79703 298.64017Q141.67549 299.09314 141.76389 299.513L140.97943 300.12067L138.44933 296.4194L141.47662 293.3921L142.18373 294.0992L139.75305 296.52988L141.06783 298.48547Q141.2225 297.5574 141.81912 296.9608Q142.61462 296.16528 143.70844 296.17633Q144.81328 296.17633 145.68611 297.04916Q146.50371 297.86676 146.63629 298.94952Q146.77992 300.2643 145.7745 301.2697Q144.94586 302.09836 143.95149 302.16464Q142.96817 302.21988 142.12848 301.53488Z" fill-rule="nonzero"/><path fill="#000000" d="M167.16881 303.43524L167.88696 304.15338L163.86528 308.17505Q163.60013 307.90988 163.43439 307.56738Q163.18028 307.0039 163.11398 306.27472Q163.05875 305.53445 163.18028 304.37436Q163.35706 302.5624 163.22447 301.7448Q163.10294 300.91617 162.68309 300.49634Q162.24115 300.05438 161.62244 300.07648Q160.99266 300.08752 160.48444 300.59576Q159.94305 301.13715 159.94305 301.77795Q159.94305 302.41876 160.50653 303.00433L159.66684 303.68936Q158.8824 302.7502 158.94868 301.80005Q159.01497 300.8278 159.88782 299.95496Q160.76065 299.08212 161.75502 299.06Q162.74939 299.0379 163.46754 299.75607Q163.83214 300.12067 164.03102 300.6289Q164.22989 301.11505 164.27408 301.86633Q164.31828 302.59555 164.19675 304.065Q164.08626 305.30243 164.0973 305.71124Q164.10835 306.09793 164.1857 306.41833L167.16881 303.43524ZM165.92032 300.1317Q164.83755 299.04895 164.40666 298.17612Q163.96472 297.29224 164.04207 296.5078Q164.13045 295.7123 164.79337 295.04938Q165.2795 294.56326 165.84297 294.39752Q166.4175 294.22076 167.03622 294.35333Q167.64389 294.47485 168.30681 294.87262Q168.96971 295.27036 169.87569 296.17633Q170.9474 297.24805 171.3783 298.12088Q171.82024 298.98267 171.7429 299.7892Q171.66556 300.57367 170.9916 301.24762Q170.11876 302.12045 168.98076 301.99893Q167.63284 301.84424 165.92032 300.1317ZM166.68266 299.3694Q168.17422 300.86093 169.02496 301.00455Q169.87569 301.1482 170.38393 300.63995Q170.90321 300.12067 170.74854 299.28098Q170.6049 298.43024 169.11334 296.9387Q167.61075 295.4361 166.77106 295.3035Q165.93137 295.14883 165.40103 295.67917Q164.8928 296.18738 165.01433 296.92764Q165.18007 297.86676 166.68266 299.3694Z" fill-rule="nonzero"/><path fill="#000000" d="M192.3638 303.43524L193.08195 304.15338L189.06029 308.17505Q188.79512 307.90988 188.6294 307.56738Q188.37527 307.0039 188.30899 306.27472Q188.25375 305.53445 188.37527 304.37436Q188.55206 302.5624 188.41948 301.7448Q188.29794 300.91617 187.8781 300.4963Q187.43616 300.05438 186.81744 300.07648Q186.18767 300.08752 185.67944 300.59576Q185.13806 301.13715 185.13806 301.77795Q185.13806 302.41876 185.70154 303.00433L184.86185 303.68936Q184.0774 302.7502 184.14369 301.80005Q184.20998 300.8278 185.08281 299.95493Q185.95566 299.0821 186.95003 299.06Q187.94438 299.0379 188.66254 299.75607Q189.02715 300.12067 189.22601 300.6289Q189.4249 301.11505 189.46909 301.86633Q189.51328 302.59555 189.39175 304.065Q189.28127 305.30243 189.29231 305.71124Q189.30336 306.09793 189.3807 306.41833L192.3638 303.43524ZM192.51848 301.53488L193.23665 300.68414Q193.89955 301.1703 194.49617 301.1482Q195.10385 301.11505 195.55684 300.66205Q196.08716 300.1317 196.05402 299.34726Q196.02087 298.56284 195.35796 297.8999Q194.71715 297.2591 193.98795 297.2591Q193.25874 297.237 192.67317 297.82257Q192.31961 298.17612 192.18703 298.64017Q192.06549 299.09314 192.15388 299.513L191.36943 300.12067L188.83932 296.4194L191.86662 293.3921L192.57373 294.0992L190.14305 296.52988L191.45782 298.48547Q191.6125 297.5574 192.20912 296.9608Q193.00462 296.16528 194.09843 296.17633Q195.20328 296.17633 196.07611 297.04916Q196.8937 297.86676 197.02629 298.94952Q197.16992 300.2643 196.1645 301.2697Q195.33586 302.09836 194.34149 302.16464Q193.35817 302.21988 192.51848 301.53488Z" fill-rule="nonzero"/><path fill="#000000" d="M212.75269 306.47357L213.40454 305.62283Q214.15585 306.13107 214.75247 306.10898Q215.33804 306.07584 215.77998 305.6339Q216.31032 305.10358 216.31032 304.37436Q216.31032 303.64517 215.76894 303.1038Q215.2607 302.59555 214.58675 302.6066Q213.91278 302.59555 213.3935 303.11484Q213.18358 303.32474 212.95155 303.73355L212.37703 302.98224Q212.46542 302.91595 212.50961 302.87177Q212.98471 302.39667 213.11728 301.77795Q213.24986 301.13715 212.73059 300.61786Q212.3218 300.20908 211.78041 300.22012Q211.22798 300.22012 210.78604 300.66205Q210.35515 301.09296 210.33305 301.66748Q210.322 302.23096 210.78604 302.84967L209.90216 303.46838Q209.2945 302.59555 209.37183 301.70062Q209.43813 300.79465 210.15628 300.07648Q210.65346 299.57928 211.29428 299.38043Q211.92404 299.1705 212.50961 299.31412Q213.09518 299.45776 213.51503 299.8776Q213.90173 300.2643 214.02327 300.8057Q214.13376 301.336 213.91278 301.93265Q214.56465 301.52383 215.2607 301.62326Q215.94571 301.71167 216.54233 302.3083Q217.33783 303.1038 217.30469 304.2418Q217.2826 305.36874 216.3987 306.25262Q215.60321 307.0481 214.5978 307.10336Q213.58133 307.14755 212.75269 306.47357ZM216.31032 300.1317Q215.22755 299.04895 214.79666 298.17612Q214.35472 297.29224 214.43207 296.5078Q214.52045 295.7123 215.18336 295.04938Q215.6695 294.56326 216.23297 294.39752Q216.8075 294.22076 217.42622 294.35333Q218.03389 294.47485 218.69681 294.87262Q219.35971 295.27036 220.2657 296.17633Q221.3374 297.24805 221.7683 298.12088Q222.21024 298.98267 222.1329 299.7892Q222.05556 300.57367 221.38159 301.24762Q220.50876 302.12045 219.37076 301.99893Q218.02284 301.84424 216.31032 300.1317ZM217.07266 299.3694Q218.56422 300.86093 219.41496 301.00455Q220.2657 301.1482 220.77393 300.63995Q221.29321 300.12067 221.13853 299.28098Q220.9949 298.43024 219.50334 296.9387Q218.00075 295.4361 217.16106 295.3035Q216.32137 295.14883 215.79103 295.67917Q215.2828 296.18738 215.40433 296.92764Q215.57007 297.86676 217.07266 299.3694Z" fill-rule="nonzero"/><path fill="#000000" d="M237.9477 306.47357L238.59955 305.62283Q239.35086 306.13107 239.94748 306.10898Q240.53305 306.07584 240.97499 305.63388Q241.50533 305.10355 241.50533 304.37436Q241.50533 303.64514 240.96394 303.10376Q240.4557 302.59555 239.78175 302.6066Q239.10779 302.59555 238.5885 303.11484Q238.37859 303.32474 238.14656 303.73355L237.57204 302.98224Q237.66043 302.91595 237.70462 302.87177Q238.1797 302.39667 238.31229 301.77795Q238.44487 301.13715 237.9256 300.61786Q237.5168 300.20905 236.97542 300.2201Q236.42299 300.2201 235.98105 300.66205Q235.55016 301.09293 235.52806 301.66745Q235.51701 302.23093 235.98105 302.84967L235.09717 303.46838Q234.4895 302.59555 234.56683 301.70062Q234.63313 300.79462 235.35129 300.07648Q235.84846 299.57928 236.48929 299.3804Q237.11905 299.1705 237.70462 299.31412Q238.29019 299.45776 238.71004 299.8776Q239.09674 300.2643 239.21828 300.80566Q239.32875 301.336 239.10779 301.93262Q239.75964 301.52383 240.4557 301.62326Q241.14072 301.71167 241.73734 302.3083Q242.53284 303.10376 242.4997 304.24176Q242.47758 305.3687 241.5937 306.25262Q240.79822 307.0481 239.7928 307.10333Q238.77634 307.14755 237.9477 306.47357ZM242.9085 301.53488L243.62665 300.68414Q244.28955 301.1703 244.88617 301.1482Q245.49385 301.11505 245.94684 300.66205Q246.47716 300.1317 246.44402 299.34726Q246.41087 298.56284 245.74796 297.8999Q245.10715 297.2591 244.37794 297.2591Q243.64874 297.237 243.06317 297.82257Q242.70961 298.17612 242.57703 298.64017Q242.45549 299.09314 242.54388 299.513L241.75943 300.12067L239.22932 296.4194L242.25662 293.3921L242.96373 294.0992L240.53305 296.52988L241.84782 298.48547Q242.0025 297.5574 242.59912 296.9608Q243.39462 296.16528 244.48843 296.17633Q245.59328 296.17633 246.46611 297.04916Q247.2837 297.86676 247.41629 298.94952Q247.55992 300.2643 246.5545 301.2697Q245.72586 302.09836 244.73149 302.16464Q243.74817 302.21988 242.9085 301.53488Z" fill-rule="nonzero"/><path fill="#000000" d="M267.13123 305.68912L265.67282 304.2307L263.04324 306.86026L262.35825 306.17526L261.19815 299.4688L261.80582 298.8611L265.7391 302.7944L266.5567 301.9768L267.2417 302.66183L266.4241 303.47943L267.8825 304.93784L267.13123 305.68912ZM264.9878 303.54572L262.25882 300.8167L263.08746 305.44608L264.9878 303.54572ZM266.70032 300.1317Q265.61755 299.04895 265.18668 298.17612Q264.74472 297.29224 264.82208 296.50778Q264.91046 295.71228 265.57336 295.04938Q266.0595 294.56323 266.623 294.39752Q267.1975 294.22073 267.81622 294.35333Q268.4239 294.47485 269.08682 294.87262Q269.74973 295.27036 270.6557 296.17633Q271.72742 297.24805 272.1583 298.12088Q272.60025 298.98267 272.52292 299.7892Q272.44556 300.57364 271.7716 301.24762Q270.89877 302.12045 269.76077 301.9989Q268.41284 301.84424 266.70032 300.1317ZM267.46268 299.36935Q268.95422 300.8609 269.80496 301.00455Q270.6557 301.14816 271.16394 300.63995Q271.68323 300.12067 271.52853 299.28098Q271.38492 298.43024 269.89334 296.9387Q268.39075 295.43607 267.55106 295.3035Q266.71136 295.1488 266.18103 295.67914Q265.67282 296.18738 265.79434 296.92764Q265.96008 297.86676 267.46268 299.36935Z" fill-rule="nonzero"/><path fill="#000000" d="M292.3262 305.68915L290.8678 304.23074L288.23825 306.8603L287.55322 306.1753L286.39313 299.4688L287.0008 298.86115L290.93408 302.79443L291.75168 301.97684L292.43668 302.66183L291.6191 303.47943L293.0775 304.93784L292.3262 305.68915ZM290.18277 303.54572L287.4538 300.81674L288.28244 305.44608L290.18277 303.54572ZM293.29846 301.53488L294.01663 300.68414Q294.67953 301.1703 295.27615 301.1482Q295.88382 301.11505 296.33682 300.66205Q296.86716 300.1317 296.834 299.3473Q296.80087 298.56284 296.13794 297.89993Q295.49713 297.2591 294.76794 297.2591Q294.03873 297.237 293.45316 297.82257Q293.0996 298.17615 292.967 298.64017Q292.8455 299.09317 292.93387 299.513L292.1494 300.12067L289.61932 296.4194L292.6466 293.39212L293.35373 294.0992L290.92303 296.5299L292.23782 298.4855Q292.3925 297.5574 292.9891 296.9608Q293.7846 296.1653 294.87842 296.17636Q295.98328 296.17636 296.8561 297.0492Q297.6737 297.8668 297.80627 298.94952Q297.94992 300.2643 296.9445 301.2697Q296.11584 302.09836 295.1215 302.16467Q294.13815 302.2199 293.29846 301.53488Z" fill-rule="nonzero"/><path fill="#000000" d="M313.54373 306.48465L314.2619 305.6339Q314.9248 306.12003 315.52142 306.09793Q316.1291 306.0648 316.5821 305.6118Q317.11243 305.08148 317.07925 304.29703Q317.0461 303.51257 316.3832 302.84967Q315.7424 302.20886 315.01318 302.20886Q314.284 302.18674 313.69843 302.77234Q313.34485 303.1259 313.21228 303.5899Q313.09073 304.0429 313.17914 304.46274L312.39468 305.07043L309.86456 301.36917L312.89188 298.34186L313.59897 299.04895L311.1683 301.47964L312.48306 303.43524Q312.63776 302.50717 313.23438 301.91055Q314.02988 301.11505 315.1237 301.1261Q316.22852 301.1261 317.10135 301.99893Q317.91895 302.81653 318.05154 303.89926Q318.19516 305.21405 317.18976 306.21948Q316.3611 307.0481 315.36673 307.1144Q314.38342 307.16965 313.54373 306.48465ZM317.0903 300.1317Q316.00757 299.04895 315.57666 298.17612Q315.13474 297.29224 315.21207 296.5078Q315.30045 295.7123 315.96335 295.04938Q316.4495 294.56326 317.01297 294.39752Q317.5875 294.22076 318.2062 294.35333Q318.81387 294.47485 319.4768 294.87262Q320.1397 295.27036 321.0457 296.17633Q322.1174 297.24805 322.5483 298.12088Q322.99023 298.98267 322.9129 299.7892Q322.83557 300.57367 322.1616 301.24762Q321.28876 302.12045 320.15076 301.99893Q318.80283 301.84424 317.0903 300.1317ZM317.85266 299.3694Q319.3442 300.86093 320.19495 301.00455Q321.0457 301.1482 321.55392 300.63995Q322.0732 300.12067 321.91852 299.28098Q321.7749 298.43024 320.28336 296.9387Q318.78073 295.4361 317.94104 295.3035Q317.10135 295.14883 316.57104 295.67917Q316.0628 296.18738 316.18433 296.92764Q316.35007 297.86676 317.85266 299.3694Z" fill-rule="nonzero"/><path fill="#000000" d="M338.73874 306.48462L339.45688 305.63388Q340.1198 306.12003 340.71643 306.09793Q341.3241 306.0648 341.7771 305.6118Q342.3074 305.08145 342.27426 304.29703Q342.24112 303.51257 341.57822 302.84967Q340.9374 302.20883 340.2082 302.20883Q339.479 302.18674 338.8934 302.7723Q338.53986 303.1259 338.4073 303.5899Q338.28574 304.0429 338.37415 304.46274L337.5897 305.0704L335.05957 301.36914L338.08688 298.34186L338.79398 299.04895L336.3633 301.47964L337.67807 303.43524Q337.83276 302.50714 338.42938 301.91052Q339.22488 301.11505 340.31866 301.1261Q341.42352 301.1261 342.29636 301.99893Q343.11395 302.81653 343.24655 303.89926Q343.39017 305.21405 342.38477 306.21945Q341.55612 307.0481 340.56174 307.1144Q339.57843 307.16965 338.73874 306.48462ZM343.68848 301.53488L344.40665 300.68414Q345.06955 301.1703 345.66617 301.1482Q346.27383 301.11505 346.72684 300.66205Q347.25717 300.1317 347.22403 299.34726Q347.1909 298.56284 346.52795 297.8999Q345.88715 297.2591 345.15793 297.2591Q344.42874 297.237 343.84317 297.82257Q343.48962 298.17612 343.35703 298.64017Q343.2355 299.09314 343.32388 299.513L342.53943 300.12067L340.0093 296.4194L343.03662 293.39212L343.7437 294.0992L341.31305 296.5299L342.62784 298.48547Q342.7825 297.5574 343.37912 296.9608Q344.17462 296.16528 345.26843 296.17633Q346.3733 296.17633 347.24612 297.04916Q348.06372 297.86676 348.1963 298.94952Q348.33994 300.2643 347.3345 301.2697Q346.50586 302.09836 345.5115 302.16464Q344.52817 302.21988 343.68848 301.53488Z" fill-rule="nonzero"/><path fill="#000000" d="M364.80658 299.62347L364.12158 300.41898Q363.5802 300.07648 363.20453 300.05438Q362.57477 300.04333 362.13284 300.48526Q361.77927 300.8388 361.70193 301.3139Q361.6246 301.92157 361.91187 302.6287Q362.19913 303.3137 363.09406 304.2307Q362.9504 303.55676 363.13824 302.9712Q363.33713 302.37457 363.768 301.94366Q364.50827 301.20343 365.58 301.23657Q366.66272 301.25867 367.5245 302.12045Q368.09903 302.69498 368.3421 303.4463Q368.58517 304.17548 368.41946 304.87155Q368.24268 305.55655 367.7013 306.09793Q366.76218 307.03705 365.49158 306.93762Q364.221 306.83817 362.6521 305.2693Q360.88434 303.50153 360.74072 302.05417Q360.60812 300.79462 361.56937 299.8334Q362.2875 299.11523 363.1493 299.07104Q364.01108 299.00476 364.80658 299.62347ZM364.38672 305.28033Q364.77344 305.66702 365.28168 305.8659Q365.7899 306.0427 366.26498 305.94324Q366.75113 305.83276 367.08258 305.5013Q367.54663 305.03726 367.51346 304.31912Q367.46927 303.5899 366.8174 302.93805Q366.18765 302.3083 365.48053 302.28616Q364.7845 302.25302 364.27625 302.76126Q363.768 303.2695 363.77905 303.98764Q363.80115 304.69476 364.38672 305.28033ZM367.48032 300.1317Q366.39755 299.04895 365.96667 298.17612Q365.52472 297.29224 365.60208 296.50778Q365.69046 295.71228 366.35336 295.04938Q366.8395 294.56323 367.40298 294.39752Q367.9775 294.22073 368.59622 294.35333Q369.2039 294.47485 369.86682 294.87262Q370.52972 295.27036 371.4357 296.17633Q372.50742 297.24805 372.9383 298.12088Q373.38025 298.98267 373.30292 299.7892Q373.22556 300.57364 372.5516 301.24762Q371.67877 302.12045 370.54077 301.9989Q369.19284 301.84424 367.48032 300.1317ZM368.24268 299.36935Q369.73422 300.8609 370.58496 301.00455Q371.4357 301.1482 371.94394 300.63995Q372.46323 300.12067 372.30853 299.28098Q372.16492 298.43024 370.67334 296.9387Q369.17075 295.4361 368.33105 295.3035Q367.49136 295.14883 366.96103 295.67914Q366.45282 296.18738 366.57434 296.92764Q366.74008 297.86676 368.24268 299.36935Z" fill-rule="nonzero"/><path fill="#000000" d="M390.00156 299.6235L389.31656 300.41898Q388.77518 300.07648 388.39954 300.05438Q387.76974 300.04333 387.32782 300.4853Q386.97427 300.83884 386.8969 301.31393Q386.81958 301.9216 387.10684 302.6287Q387.3941 303.31372 388.28903 304.23074Q388.14542 303.55676 388.33322 302.9712Q388.5321 302.37457 388.963 301.9437Q389.70325 301.20343 390.77496 301.23657Q391.85773 301.25867 392.7195 302.12045Q393.29404 302.69498 393.5371 303.4463Q393.78015 304.1755 393.61444 304.87155Q393.43765 305.55655 392.89627 306.09793Q391.95715 307.03708 390.68658 306.93762Q389.416 306.8382 387.8471 305.2693Q386.0793 303.50153 385.9357 302.05417Q385.8031 300.79465 386.76434 299.8334Q387.48248 299.11526 388.34427 299.07108Q389.20605 299.0048 390.00156 299.6235ZM389.58173 305.28036Q389.9684 305.66705 390.47665 305.86594Q390.9849 306.0427 391.45996 305.94327Q391.9461 305.83276 392.27756 305.5013Q392.7416 305.0373 392.70847 304.31912Q392.66425 303.58994 392.0124 302.93805Q391.38263 302.3083 390.67554 302.2862Q389.97946 302.25305 389.47122 302.7613Q388.963 303.2695 388.97406 303.98767Q388.99615 304.69476 389.58173 305.28036ZM394.07846 301.53488L394.79663 300.68414Q395.45953 301.1703 396.05615 301.1482Q396.66382 301.11505 397.11682 300.66205Q397.64716 300.1317 397.614 299.3473Q397.58087 298.56284 396.91794 297.89993Q396.27713 297.2591 395.54794 297.2591Q394.81873 297.237 394.23315 297.82257Q393.8796 298.17615 393.747 298.64017Q393.6255 299.09317 393.71387 299.513L392.9294 300.12067L390.39932 296.4194L393.4266 293.39212L394.13373 294.0992L391.70303 296.5299L393.01782 298.4855Q393.1725 297.5574 393.7691 296.9608Q394.5646 296.1653 395.65842 296.17636Q396.76328 296.17636 397.6361 297.0492Q398.4537 297.8668 398.58627 298.94952Q398.72992 300.2643 397.7245 301.2697Q396.89584 302.09836 395.9015 302.16467Q394.91815 302.2199 394.07846 301.53488Z" fill-rule="nonzero"/><path fill="#000000" d="M410.6777 302.7502L409.95956 302.03207L413.89285 298.0988L414.47842 298.68436Q414.5226 299.8776 414.9756 301.47964Q415.4286 303.0596 416.202 304.4517Q416.7323 305.44608 417.58304 306.4073L416.80966 307.1807Q416.10254 306.45148 415.35126 305.16986Q414.611 303.87717 414.16904 302.44086Q413.73816 300.9935 413.66083 299.76712L410.6777 302.7502ZM417.8703 300.1317Q416.78757 299.04898 416.35666 298.17612Q415.91473 297.29224 415.99207 296.5078Q416.08044 295.7123 416.74335 295.0494Q417.2295 294.56326 417.79297 294.39752Q418.3675 294.22076 418.9862 294.35333Q419.59387 294.47488 420.2568 294.87262Q420.9197 295.27036 421.82568 296.17633Q422.8974 297.24805 423.3283 298.12088Q423.77023 298.98267 423.6929 299.7892Q423.61557 300.57367 422.9416 301.24762Q422.06876 302.12045 420.93076 301.99893Q419.58282 301.84424 417.8703 300.1317ZM418.63266 299.3694Q420.1242 300.86093 420.97495 301.00455Q421.82568 301.1482 422.33392 300.63995Q422.8532 300.12067 422.69852 299.28098Q422.5549 298.43024 421.06335 296.9387Q419.56073 295.4361 418.72104 295.3035Q417.88135 295.14883 417.35104 295.67917Q416.8428 296.1874 416.96432 296.92764Q417.13007 297.86676 418.63266 299.3694Z" fill-rule="nonzero"/><path fill="#000000" d="M435.8727 302.7502L435.15457 302.03207L439.08783 298.0988L439.6734 298.68436Q439.71762 299.8776 440.1706 301.47964Q440.6236 303.05957 441.397 304.4517Q441.9273 305.44608 442.77805 306.4073L442.00467 307.1807Q441.29755 306.45148 440.54626 305.16986Q439.806 303.87717 439.36404 302.44086Q438.93317 300.9935 438.85583 299.76712L435.8727 302.7502ZM444.46848 301.53488L445.18665 300.68414Q445.84955 301.1703 446.44617 301.1482Q447.05383 301.11505 447.50684 300.66205Q448.03717 300.1317 448.00403 299.34726Q447.9709 298.56284 447.30795 297.8999Q446.66714 297.2591 445.93793 297.2591Q445.20874 297.237 444.62317 297.82257Q444.26962 298.17612 444.13702 298.64017Q444.0155 299.09317 444.10388 299.513L443.31943 300.12067L440.7893 296.4194L443.81662 293.39212L444.5237 294.0992L442.09305 296.5299L443.40784 298.48547Q443.5625 297.5574 444.15912 296.9608Q444.95462 296.16528 446.04843 296.17633Q447.1533 296.17633 448.02612 297.04916Q448.84372 297.86676 448.9763 298.94952Q449.11993 300.2643 448.1145 301.2697Q447.28586 302.09836 446.2915 302.16464Q445.30817 302.21988 444.46848 301.53488Z" fill-rule="nonzero"/><path fill="#000000" d="M464.16132 303.6341Q463.5205 303.92136 462.97913 303.84402Q462.43774 303.7446 462.00684 303.3137Q461.34393 302.6508 461.36603 301.72272Q461.39917 300.78357 462.18362 299.99915Q462.97913 299.20364 463.9293 299.18155Q464.87946 299.15945 465.5424 299.82236Q465.96222 300.2422 466.05063 300.77252Q466.139 301.30286 465.8628 301.93262Q466.60303 301.54593 467.2991 301.66745Q467.99515 301.789 468.55862 302.35248Q469.33203 303.12585 469.30994 304.20862Q469.2989 305.28033 468.3929 306.1863Q467.498 307.08124 466.41522 307.10333Q465.33246 307.12543 464.53696 306.32996Q463.94034 305.73334 463.8409 305.03726Q463.75253 304.33017 464.16132 303.6341ZM462.73605 302.5182Q463.16693 302.9491 463.71936 302.9491Q464.28284 302.93805 464.7248 302.4961Q465.15567 302.06522 465.16672 301.52383Q465.16672 300.9714 464.76898 300.57367Q464.3602 300.16486 463.79672 300.1759Q463.2222 300.1759 462.80234 300.59576Q462.37146 301.02664 462.3604 301.59012Q462.3604 302.14255 462.73605 302.5182ZM465.31036 305.55655Q465.63077 305.87695 466.07272 306.03165Q466.5257 306.17526 466.98975 306.0427Q467.45377 305.9101 467.7963 305.5676Q468.32663 305.03726 468.32663 304.35226Q468.33768 303.6562 467.80734 303.12585Q467.26596 302.5845 466.55884 302.5845Q465.85175 302.5845 465.31036 303.12585Q464.78003 303.6562 464.79108 304.35226Q464.79108 305.03726 465.31036 305.55655ZM468.2603 300.1317Q467.17758 299.04895 466.74667 298.17612Q466.30472 297.29224 466.38208 296.50778Q466.47046 295.7123 467.13336 295.04938Q467.6195 294.56323 468.18298 294.39752Q468.7575 294.22073 469.37622 294.35333Q469.9839 294.47485 470.64682 294.87262Q471.30972 295.27036 472.2157 296.17633Q473.2874 297.24805 473.7183 298.12088Q474.16025 298.98267 474.08292 299.7892Q474.00555 300.57367 473.3316 301.24762Q472.45877 302.12045 471.32077 301.99893Q469.97284 301.84424 468.2603 300.1317ZM469.02267 299.36935Q470.51422 300.86093 471.36496 301.00455Q472.2157 301.1482 472.72394 300.63995Q473.24323 300.12067 473.08853 299.28098Q472.94492 298.43024 471.45334 296.9387Q469.95074 295.4361 469.11105 295.3035Q468.27136 295.14883 467.74103 295.67914Q467.23282 296.18738 467.35434 296.92764Q467.52008 297.86676 469.02267 299.36935Z" fill-rule="nonzero"/><path fill="#000000" d="M489.3563 303.63412Q488.71548 303.9214 488.1741 303.84406Q487.63272 303.7446 487.20184 303.31372Q486.5389 302.6508 486.561 301.72272Q486.59418 300.7836 487.3786 299.99915Q488.1741 299.20364 489.12427 299.18155Q490.07446 299.15945 490.73737 299.82236Q491.1572 300.24222 491.2456 300.77255Q491.33398 301.3029 491.05777 301.93265Q491.79803 301.54593 492.49408 301.66748Q493.19016 301.789 493.75363 302.35248Q494.527 303.1259 494.5049 304.20865Q494.49387 305.28036 493.5879 306.18634Q492.69296 307.08127 491.6102 307.10336Q490.52744 307.12546 489.73193 306.32996Q489.1353 305.73334 489.0359 305.0373Q488.9475 304.33017 489.3563 303.63412ZM487.93103 302.51822Q488.36194 302.9491 488.91437 302.9491Q489.47784 302.93805 489.91977 302.49612Q490.35068 302.06522 490.36172 301.52383Q490.36172 300.9714 489.96396 300.57367Q489.55518 300.1649 488.9917 300.17593Q488.41718 300.17593 487.9973 300.59576Q487.56644 301.02667 487.5554 301.59015Q487.5554 302.14258 487.93103 302.51822ZM490.50534 305.55655Q490.82574 305.87698 491.2677 306.03165Q491.72067 306.1753 492.18472 306.0427Q492.64877 305.91013 492.99127 305.56763Q493.5216 305.0373 493.5216 304.35226Q493.53265 303.65622 493.00232 303.1259Q492.46094 302.5845 491.75385 302.5845Q491.04672 302.5845 490.50534 303.1259Q489.975 303.65622 489.98605 304.35226Q489.98605 305.0373 490.50534 305.55655ZM494.85846 301.53488L495.57663 300.68414Q496.23953 301.1703 496.83615 301.1482Q497.44382 301.11505 497.89682 300.66205Q498.42715 300.13174 498.394 299.3473Q498.36087 298.56284 497.69794 297.89993Q497.05713 297.2591 496.32794 297.2591Q495.59872 297.237 495.01315 297.82257Q494.6596 298.17615 494.527 298.64017Q494.4055 299.09317 494.49387 299.513L493.7094 300.12067L491.17932 296.41943L494.2066 293.39212L494.91373 294.0992L492.48303 296.5299L493.79782 298.4855Q493.95248 297.5574 494.5491 296.9608Q495.3446 296.1653 496.43842 296.17636Q497.54327 296.17636 498.4161 297.0492Q499.2337 297.8668 499.36627 298.94952Q499.50992 300.2643 498.5045 301.2697Q497.67584 302.09836 496.6815 302.16467Q495.69815 302.2199 494.85846 301.53488Z" fill-rule="nonzero"/><path fill="#000000" d="M515.40204 306.56198L516.0539 305.77753Q516.6505 306.1974 517.13666 306.17526Q517.6228 306.13107 518.02057 305.73334Q518.36304 305.39084 518.46246 304.98203Q518.56195 304.55115 518.4735 304.1313Q518.3741 303.7004 518.04266 303.14798Q517.70013 302.5845 517.2361 302.12045Q517.18085 302.06522 517.0814 301.9658Q517.214 302.5403 517.0593 303.15903Q516.8936 303.7667 516.4406 304.2197Q515.6783 304.98203 514.6176 304.95993Q513.5459 304.9268 512.65094 304.03186Q511.72287 303.1038 511.70078 301.99893Q511.68973 300.88303 512.5073 300.06543Q513.0929 299.47986 513.8994 299.31412Q514.71704 299.13736 515.56775 299.47986Q516.4075 299.8113 517.5234 300.92722Q518.6835 302.0873 519.1254 303.0375Q519.5673 303.96558 519.4237 304.8384Q519.2801 305.68915 518.6172 306.35205Q517.899 307.07022 517.0593 307.1365Q516.20856 307.19174 515.40204 306.56198ZM515.76666 300.8278Q515.12585 300.18698 514.40765 300.1538Q513.70056 300.10962 513.2144 300.59576Q512.7172 301.09296 512.75037 301.87738Q512.7835 302.63974 513.4354 303.2916Q514.00995 303.86612 514.7281 303.87717Q515.4462 303.8882 515.95447 303.38Q516.47375 302.86072 516.4406 302.16464Q516.4075 301.4686 515.76666 300.8278ZM518.6503 300.1317Q517.56757 299.04898 517.13666 298.17612Q516.6947 297.29224 516.77203 296.5078Q516.8605 295.7123 517.5234 295.0494Q518.0095 294.56326 518.573 294.39752Q519.1475 294.22076 519.76624 294.35333Q520.3739 294.47488 521.0368 294.87262Q521.6997 295.27036 522.6057 296.17633Q523.6774 297.24805 524.1083 298.12088Q524.55023 298.98267 524.4729 299.7892Q524.39557 300.57367 523.7216 301.24762Q522.84875 302.12045 521.71075 301.99893Q520.36285 301.84424 518.6503 300.1317ZM519.41266 299.3694Q520.90424 300.86093 521.75494 301.00455Q522.6057 301.1482 523.11395 300.63995Q523.6332 300.12067 523.4785 299.28098Q523.3349 298.43024 521.8433 296.9387Q520.34076 295.4361 519.50104 295.3035Q518.6614 295.14883 518.13104 295.67917Q517.6228 296.1874 517.7443 296.92764Q517.91003 297.86676 519.41266 299.3694Z" fill-rule="nonzero"/><path fill="#000000" d="M540.59705 306.56198L541.2489 305.77753Q541.8455 306.19736 542.33167 306.17526Q542.8178 306.13107 543.2156 305.73334Q543.55804 305.39084 543.6575 304.98203Q543.75696 304.55115 543.6685 304.1313Q543.5691 303.7004 543.2377 303.14798Q542.89514 302.5845 542.4311 302.12045Q542.37585 302.06522 542.2764 301.9658Q542.409 302.5403 542.25433 303.15903Q542.0886 303.7667 541.6356 304.21967Q540.8732 304.98203 539.8126 304.95993Q538.7409 304.9268 537.84595 304.03186Q536.9179 303.1038 536.8958 301.99893Q536.88477 300.88303 537.70233 300.06543Q538.2879 299.47986 539.0944 299.31412Q539.91205 299.13736 540.76276 299.47986Q541.6025 299.8113 542.7184 300.92722Q543.8785 302.0873 544.32043 303.03748Q544.7623 303.96558 544.6187 304.8384Q544.4751 305.68915 543.8122 306.35205Q543.094 307.0702 542.25433 307.1365Q541.40356 307.19174 540.59705 306.56198ZM540.9617 300.8278Q540.32086 300.18695 539.60266 300.1538Q538.89557 300.10962 538.4094 300.59576Q537.91223 301.09296 537.9454 301.87738Q537.9785 302.63974 538.63043 303.2916Q539.20496 303.86612 539.9231 303.87717Q540.64124 303.8882 541.1495 303.38Q541.66876 302.86072 541.6356 302.16464Q541.6025 301.4686 540.9617 300.8278ZM545.2485 301.53488L545.9666 300.68414Q546.6296 301.1703 547.2262 301.1482Q547.83386 301.11505 548.2868 300.66205Q548.81714 300.1317 548.784 299.34726Q548.75085 298.56284 548.08795 297.8999Q547.44714 297.2591 546.71796 297.2591Q545.9887 297.237 545.40314 297.82257Q545.0496 298.17612 544.91705 298.64017Q544.7955 299.09317 544.8839 299.513L544.0994 300.12067L541.56934 296.4194L544.5966 293.39212L545.3037 294.0992L542.87305 296.5299L544.1878 298.48547Q544.3425 297.5574 544.93915 296.9608Q545.7346 296.16528 546.8284 296.17633Q547.9333 296.17633 548.8061 297.04916Q549.6237 297.86676 549.7563 298.94952Q549.8999 300.2643 548.89453 301.2697Q548.06586 302.09836 547.0715 302.16464Q546.0882 302.21988 545.2485 301.53488Z" fill-rule="nonzero"/><path fill="#000000" d="M555.0418 320.11853L554.3016 320.8588L549.5507 316.1079Q549.5286 316.63824 549.3518 317.34534Q549.17505 318.03036 548.9541 318.4944L548.2359 317.77625Q548.55634 316.85922 548.6116 315.98636Q548.6668 315.09143 548.46796 314.4948L548.943 314.01974L555.0418 320.11853ZM554.1911 314.98096Q553.10834 313.8982 552.6774 313.02536Q552.2355 312.14148 552.3128 311.35703Q552.40125 310.56155 553.06415 309.89862Q553.5503 309.41248 554.1138 309.24677Q554.6883 309.06998 555.307 309.20258Q555.9147 309.3241 556.5776 309.72186Q557.2405 310.1196 558.1465 311.02557Q559.21814 312.0973 559.64905 312.97012Q560.091 313.8319 560.0137 314.63846Q559.93634 315.4229 559.2624 316.09686Q558.3895 316.9697 557.2515 316.84818Q555.9036 316.69348 554.1911 314.98096ZM554.9534 314.2186Q556.445 315.71017 557.2957 315.8538Q558.1465 315.99744 558.65466 315.4892Q559.17395 314.9699 559.0193 314.13022Q558.8757 313.27948 557.3841 311.78793Q555.88153 310.28534 555.0418 310.15274Q554.20215 309.99808 553.6718 310.52838Q553.1636 311.03662 553.2851 311.7769Q553.4508 312.716 554.9534 314.2186ZM559.1408 310.03122Q558.05804 308.94846 557.6272 308.07562Q557.18524 307.19174 557.2626 306.4073Q557.35095 305.6118 558.01385 304.94888Q558.5 304.46274 559.0635 304.29703Q559.638 304.12024 560.2567 304.2528Q560.8644 304.37436 561.52734 304.7721Q562.19025 305.16986 563.0962 306.07584Q564.1679 307.14755 564.5988 308.0204Q565.0408 308.88217 564.96344 309.6887Q564.88605 310.47314 564.2121 311.14713Q563.3393 312.01996 562.2013 311.8984Q560.85333 311.74374 559.1408 310.03122ZM559.9032 309.26886Q561.3947 310.7604 562.2455 310.90405Q563.0962 311.04767 563.60443 310.53943Q564.1237 310.02017 563.96906 309.18048Q563.82544 308.32974 562.33386 306.83817Q560.83124 305.33557 559.9916 305.203Q559.15186 305.0483 558.6215 305.57864Q558.11334 306.08688 558.23486 306.82712Q558.4006 307.76627 559.9032 309.26886ZM564.0906 305.08145Q563.0078 303.99872 562.5769 303.12585Q562.135 302.24197 562.21234 301.45755Q562.3007 300.66205 562.9636 299.99915Q563.44977 299.513 564.01324 299.34726Q564.58777 299.1705 565.2065 299.30307Q565.81415 299.42462 566.47705 299.82236Q567.13995 300.2201 568.04596 301.12607Q569.1177 302.19778 569.5486 303.07062Q569.9905 303.9324 569.91315 304.73895Q569.8358 305.5234 569.16187 306.19736Q568.289 307.0702 567.151 306.94867Q565.8031 306.79398 564.0906 305.08145ZM564.8529 304.31912Q566.3445 305.81067 567.1952 305.95428Q568.04596 306.09793 568.5542 305.5897Q569.0735 305.0704 568.91876 304.2307Q568.77515 303.37997 567.2836 301.88843Q565.781 300.38583 564.9413 300.25323Q564.1016 300.09857 563.5713 300.6289Q563.06305 301.13715 563.1846 301.87738Q563.35034 302.8165 564.8529 304.31912ZM569.04034 300.1317Q567.9576 299.04895 567.5267 298.17612Q567.0847 297.29224 567.16205 296.50778Q567.2505 295.7123 567.9134 295.04938Q568.39954 294.56326 568.963 294.39752Q569.53754 294.22073 570.15625 294.35333Q570.7639 294.47485 571.4268 294.87262Q572.0897 295.27036 572.9957 296.17633Q574.0674 297.24805 574.4983 298.12088Q574.94025 298.98267 574.8629 299.7892Q574.7856 300.57367 574.11163 301.24762Q573.2388 302.12045 572.10077 301.99893Q570.75287 301.84424 569.04034 300.1317ZM569.8027 299.36935Q571.29425 300.86093 572.14496 301.00455Q572.9957 301.1482 573.5039 300.63995Q574.0232 300.12067 573.8685 299.28098Q573.7249 298.43024 572.23334 296.9387Q570.7308 295.4361 569.89105 295.3035Q569.0514 295.14883 568.52106 295.67914Q568.0128 296.18738 568.13434 296.92764Q568.30005 297.86676 569.8027 299.36935Z" fill-rule="nonzero"/><path fill="#757575" d="M19.45625 32.95625L21.2375 32.8Q21.3625 33.8625 21.815624 34.55Q22.284374 35.2375 23.253124 35.675Q24.2375 36.096874 25.471874 36.096874Q26.55 36.096874 27.378124 35.784374Q28.20625 35.45625 28.6125 34.89375Q29.01875 34.33125 29.01875 33.659374Q29.01875 32.9875 28.628124 32.4875Q28.2375 31.9875 27.346874 31.64375Q26.76875 31.409374 24.784374 30.940624Q22.815624 30.471874 22.034374 30.05Q21.003124 29.51875 20.503124 28.721874Q20.003124 27.925 20.003124 26.940624Q20.003124 25.846874 20.6125 24.909374Q21.221874 23.971874 22.409374 23.4875Q23.596874 22.9875 25.034374 22.9875Q26.628124 22.9875 27.846874 23.503124Q29.065624 24.01875 29.70625 25.01875Q30.3625 26.003124 30.409374 27.26875L28.596874 27.409374Q28.45625 26.05 27.6125 25.3625Q26.76875 24.659374 25.1125 24.659374Q23.39375 24.659374 22.596874 25.3Q21.815624 25.925 21.815624 26.8Q21.815624 27.58125 22.378124 28.08125Q22.925 28.58125 25.2375 29.096874Q27.55 29.6125 28.409374 30.003124Q29.659374 30.58125 30.253124 31.471874Q30.846874 32.346874 30.846874 33.503124Q30.846874 34.64375 30.190624 35.659374Q29.534374 36.675 28.3 37.2375Q27.08125 37.8 25.55 37.8Q23.6125 37.8 22.3 37.2375Q20.9875 36.659374 20.2375 35.51875Q19.4875 34.378124 19.45625 32.95625ZM39.64375 33.753124L41.3625 33.971874Q41.08125 35.76875 39.909374 36.784374Q38.753124 37.784374 37.05 37.784374Q34.925 37.784374 33.628124 36.39375Q32.33125 35.003124 32.33125 32.409374Q32.33125 30.721874 32.878124 29.471874Q33.440624 28.20625 34.58125 27.58125Q35.721874 26.940624 37.065624 26.940624Q38.753124 26.940624 39.815624 27.8Q40.89375 28.659374 41.20625 30.221874L39.4875 30.4875Q39.253124 29.440624 38.628124 28.925Q38.003124 28.39375 37.128124 28.39375Q35.8 28.39375 34.971874 29.346874Q34.14375 30.3 34.14375 32.346874Q34.14375 34.440624 34.940624 35.39375Q35.7375 36.33125 37.034374 36.33125Q38.065624 36.33125 38.753124 35.70625Q39.45625 35.065624 39.64375 33.753124ZM42.221874 32.3625Q42.221874 29.4875 43.815624 28.096874Q45.159374 26.940624 47.08125 26.940624Q49.221874 26.940624 50.565624 28.346874Q51.925 29.753124 51.925 32.221874Q51.925 34.221874 51.33125 35.378124Q50.7375 36.51875 49.58125 37.159374Q48.440624 37.784374 47.08125 37.784374Q44.89375 37.784374 43.55 36.39375Q42.221874 34.9875 42.221874 32.3625ZM44.01875 32.3625Q44.01875 34.3625 44.878124 35.346874Q45.753124 36.33125 47.08125 36.33125Q48.39375 36.33125 49.253124 35.346874Q50.128124 34.346874 50.128124 32.3Q50.128124 30.378124 49.253124 29.39375Q48.378124 28.39375 47.08125 28.39375Q45.753124 28.39375 44.878124 29.39375Q44.01875 30.378124 44.01875 32.3625ZM53.846874 37.55L53.846874 27.175L55.425 27.175L55.425 28.753124Q56.034374 27.64375 56.55 27.3Q57.065624 26.940624 57.675 26.940624Q58.565624 26.940624 59.4875 27.503124L58.878124 29.14375Q58.2375 28.753124 57.596874 28.753124Q57.01875 28.753124 56.55 29.1125Q56.096874 29.45625 55.89375 30.065624Q55.6125 31.003124 55.6125 32.1125L55.6125 37.55L53.846874 37.55ZM67.97188 34.20625L69.78438 34.440624Q69.3625 36.01875 68.19063 36.909374Q67.03438 37.784374 65.22188 37.784374Q62.95625 37.784374 61.6125 36.39375Q60.284374 34.9875 60.284374 32.45625Q60.284374 29.83125 61.628124 28.39375Q62.971874 26.940624 65.12813 26.940624Q67.20625 26.940624 68.51875 28.3625Q69.84688 29.76875 69.84688 32.346874Q69.84688 32.503124 69.83125 32.815624L62.096874 32.815624Q62.190624 34.51875 63.065624 35.425Q63.940624 36.33125 65.2375 36.33125Q66.20625 36.33125 66.87813 35.83125Q67.56563 35.315624 67.97188 34.20625ZM62.190624 31.3625L67.9875 31.3625Q67.87813 30.065624 67.33125 29.409374Q66.4875 28.39375 65.14375 28.39375Q63.940624 28.39375 63.1125 29.20625Q62.284374 30.003124 62.190624 31.3625ZM80.75313 37.55L76.8 27.175L78.65938 27.175L80.89375 33.39375Q81.25313 34.39375 81.55 35.471874Q81.78438 34.659374 82.20625 33.503124L84.50313 27.175L86.31563 27.175L82.39375 37.55L80.75313 37.55ZM86.15938 34.45625L87.90938 34.175Q88.05 35.221874 88.72188 35.784374Q89.39375 36.33125 90.59688 36.33125Q91.8 36.33125 92.37813 35.846874Q92.97188 35.346874 92.97188 34.690624Q92.97188 34.096874 92.45625 33.753124Q92.09688 33.51875 90.65938 33.159374Q88.72188 32.659374 87.97188 32.315624Q87.2375 31.95625 86.84688 31.33125Q86.45625 30.690624 86.45625 29.925Q86.45625 29.2375 86.76875 28.64375Q87.09688 28.05 87.64375 27.659374Q88.05 27.3625 88.75313 27.159374Q89.47188 26.940624 90.28438 26.940624Q91.50313 26.940624 92.425 27.3Q93.34688 27.64375 93.78438 28.253124Q94.22188 28.846874 94.39375 29.846874L92.675 30.08125Q92.55 29.284374 91.9875 28.846874Q91.425 28.39375 90.40938 28.39375Q89.19063 28.39375 88.675 28.8Q88.15938 29.190624 88.15938 29.721874Q88.15938 30.065624 88.37813 30.346874Q88.58125 30.628124 89.05 30.815624Q89.31563 30.909374 90.59688 31.253124Q92.47188 31.753124 93.20625 32.08125Q93.94063 32.39375 94.3625 33.003124Q94.78438 33.596874 94.78438 34.503124Q94.78438 35.378124 94.26875 36.159374Q93.75313 36.940624 92.78438 37.3625Q91.81563 37.784374 90.59688 37.784374Q88.58125 37.784374 87.51875 36.940624Q86.45625 36.096874 86.15938 34.45625ZM97.3625 37.55L97.3625 35.55L99.3625 35.55L99.3625 37.55L97.3625 37.55ZM109.08125 37.55L109.08125 23.2375L111.01875 23.2375L118.53438 34.471874L118.53438 23.2375L120.34688 23.2375L120.34688 37.55L118.40938 37.55L110.89375 26.3L110.89375 37.55L109.08125 37.55ZM128.65938 37.55L128.65938 36.01875Q127.45625 37.784374 125.37813 37.784374Q124.45625 37.784374 123.65938 37.440624Q122.8625 37.08125 122.47188 36.55Q122.09688 36.01875 121.94063 35.2375Q121.83125 34.721874 121.83125 33.596874L121.83125 27.175L123.58125 27.175L123.58125 32.925Q123.58125 34.3 123.69063 34.784374Q123.8625 35.471874 124.39375 35.878124Q124.94063 36.26875 125.72188 36.26875Q126.51875 36.26875 127.20625 35.8625Q127.90938 35.45625 128.19063 34.76875Q128.4875 34.065624 128.4875 32.7375L128.4875 27.175L130.2375 27.175L130.2375 37.55L128.65938 37.55ZM131.8625 37.55L131.8625 27.175L133.44063 27.175L133.44063 28.628124Q133.925 27.878124 134.7375 27.409374Q135.55 26.940624 136.58125 26.940624Q137.7375 26.940624 138.47188 27.425Q139.20625 27.89375 139.51875 28.753124Q140.75313 26.940624 142.72188 26.940624Q144.26875 26.940624 145.09688 27.8Q145.925 28.659374 145.925 30.425L145.925 37.55L144.175 37.55L144.175 31.01875Q144.175 29.95625 144.00313 29.503124Q143.83125 29.034374 143.37813 28.753124Q142.94063 28.471874 142.33125 28.471874Q141.2375 28.471874 140.50313 29.20625Q139.78438 29.925 139.78438 31.51875L139.78438 37.55L138.03438 37.55L138.03438 30.815624Q138.03438 29.64375 137.59688 29.065624Q137.175 28.471874 136.19063 28.471874Q135.45625 28.471874 134.81563 28.8625Q134.19063 29.253124 133.90938 30.003124Q133.62813 30.753124 133.62813 32.175L133.62813 37.55L131.8625 37.55ZM149.4875 37.55L147.8625 37.55L147.8625 23.2375L149.6125 23.2375L149.6125 28.346874Q150.7375 26.940624 152.45625 26.940624Q153.40938 26.940624 154.26875 27.33125Q155.12813 27.721874 155.675 28.425Q156.22188 29.1125 156.53438 30.096874Q156.84688 31.08125 156.84688 32.20625Q156.84688 34.878124 155.53438 36.33125Q154.22188 37.784374 152.37813 37.784374Q150.53438 37.784374 149.4875 36.253124L149.4875 37.55ZM149.47188 32.284374Q149.47188 34.14375 149.97188 34.9875Q150.81563 36.33125 152.22188 36.33125Q153.37813 36.33125 154.20625 35.33125Q155.05 34.33125 155.05 32.346874Q155.05 30.315624 154.2375 29.3625Q153.44063 28.39375 152.3 28.39375Q151.14375 28.39375 150.3 29.39375Q149.47188 30.39375 149.47188 32.284374ZM165.97188 34.20625L167.78438 34.440624Q167.3625 36.01875 166.19063 36.909374Q165.03438 37.784374 163.22188 37.784374Q160.95625 37.784374 159.6125 36.39375Q158.28438 34.9875 158.28438 32.45625Q158.28438 29.83125 159.62813 28.39375Q160.97188 26.940624 163.12813 26.940624Q165.20625 26.940624 166.51875 28.3625Q167.84688 29.76875 167.84688 32.346874Q167.84688 32.503124 167.83125 32.815624L160.09688 32.815624Q160.19063 34.51875 161.06563 35.425Q161.94063 36.33125 163.2375 36.33125Q164.20625 36.33125 164.87813 35.83125Q165.56563 35.315624 165.97188 34.20625ZM160.19063 31.3625L165.9875 31.3625Q165.87813 30.065624 165.33125 29.409374Q164.4875 28.39375 163.14375 28.39375Q161.94063 28.39375 161.1125 29.20625Q160.28438 30.003124 160.19063 31.3625ZM169.84688 37.55L169.84688 27.175L171.425 27.175L171.425 28.753124Q172.03438 27.64375 172.55 27.3Q173.06563 26.940624 173.675 26.940624Q174.56563 26.940624 175.4875 27.503124L174.87813 29.14375Q174.2375 28.753124 173.59688 28.753124Q173.01875 28.753124 172.55 29.1125Q172.09688 29.45625 171.89375 30.065624Q171.6125 31.003124 171.6125 32.1125L171.6125 37.55L169.84688 37.55ZM182.22188 32.3625Q182.22188 29.4875 183.81563 28.096874Q185.15938 26.940624 187.08125 26.940624Q189.22188 26.940624 190.56563 28.346874Q191.925 29.753124 191.925 32.221874Q191.925 34.221874 191.33125 35.378124Q190.7375 36.51875 189.58125 37.159374Q188.44063 37.784374 187.08125 37.784374Q184.89375 37.784374 183.55 36.39375Q182.22188 34.9875 182.22188 32.3625ZM184.01875 32.3625Q184.01875 34.3625 184.87813 35.346874Q185.75313 36.33125 187.08125 36.33125Q188.39375 36.33125 189.25313 35.346874Q190.12813 34.346874 190.12813 32.3Q190.12813 30.378124 189.25313 29.39375Q188.37813 28.39375 187.08125 28.39375Q185.75313 28.39375 184.87813 29.39375Q184.01875 30.378124 184.01875 32.3625ZM194.28438 37.55L194.28438 28.55L192.7375 28.55L192.7375 27.175L194.28438 27.175L194.28438 26.08125Q194.28438 25.034374 194.47188 24.51875Q194.72188 23.83125 195.3625 23.409374Q196.00313 22.9875 197.15938 22.9875Q197.90938 22.9875 198.8 23.159374L198.53438 24.690624Q197.9875 24.596874 197.50313 24.596874Q196.70625 24.596874 196.3625 24.940624Q196.03438 25.284374 196.03438 26.221874L196.03438 27.175L198.06563 27.175L198.06563 28.55L196.03438 28.55L196.03438 37.55L194.28438 37.55ZM207.78438 37.55L204.6125 27.175L206.425 27.175L208.08125 33.159374L208.69063 35.39375Q208.7375 35.221874 209.22188 33.253124L210.87813 27.175L212.69063 27.175L214.2375 33.190624L214.75313 35.175L215.34688 33.175L217.12813 27.175L218.83125 27.175L215.59688 37.55L213.76875 37.55L212.1125 31.33125L211.72188 29.565624L209.6125 37.55L207.78438 37.55ZM220.22188 32.3625Q220.22188 29.4875 221.81563 28.096874Q223.15938 26.940624 225.08125 26.940624Q227.22188 26.940624 228.56563 28.346874Q229.925 29.753124 229.925 32.221874Q229.925 34.221874 229.33125 35.378124Q228.7375 36.51875 227.58125 37.159374Q226.44063 37.784374 225.08125 37.784374Q222.89375 37.784374 221.55 36.39375Q220.22188 34.9875 220.22188 32.3625ZM222.01875 32.3625Q222.01875 34.3625 222.87813 35.346874Q223.75313 36.33125 225.08125 36.33125Q226.39375 36.33125 227.25313 35.346874Q228.12813 34.346874 228.12813 32.3Q228.12813 30.378124 227.25313 29.39375Q226.37813 28.39375 225.08125 28.39375Q223.75313 28.39375 222.87813 29.39375Q222.01875 30.378124 222.01875 32.3625ZM231.84688 37.55L231.84688 27.175L233.425 27.175L233.425 28.753124Q234.03438 27.64375 234.55 27.3Q235.06563 26.940624 235.675 26.940624Q236.56563 26.940624 237.4875 27.503124L236.87813 29.14375Q236.2375 28.753124 235.59688 28.753124Q235.01875 28.753124 234.55 29.1125Q234.09688 29.45625 233.89375 30.065624Q233.6125 31.003124 233.6125 32.1125L233.6125 37.55L231.84688 37.55ZM245.59688 37.55L245.59688 36.2375Q244.6125 37.784374 242.69063 37.784374Q241.45625 37.784374 240.40938 37.096874Q239.37813 36.409374 238.8 35.190624Q238.2375 33.971874 238.2375 32.378124Q238.2375 30.815624 238.75313 29.55Q239.26875 28.284374 240.3 27.6125Q241.34688 26.940624 242.6125 26.940624Q243.55 26.940624 244.28438 27.346874Q245.01875 27.7375 245.4875 28.3625L245.4875 23.2375L247.22188 23.2375L247.22188 37.55L245.59688 37.55ZM240.03438 32.378124Q240.03438 34.3625 240.87813 35.346874Q241.72188 36.33125 242.8625 36.33125Q244.01875 36.33125 244.81563 35.39375Q245.62813 34.45625 245.62813 32.51875Q245.62813 30.39375 244.8 29.39375Q243.9875 28.39375 242.78438 28.39375Q241.6125 28.39375 240.81563 29.3625Q240.03438 30.315624 240.03438 32.378124ZM255.8625 41.51875L255.8625 27.175L257.47186 27.175L257.47186 28.51875Q258.03436 27.7375 258.7375 27.346874Q259.45624 26.940624 260.47186 26.940624Q261.8 26.940624 262.8156 27.628124Q263.83124 28.315624 264.34686 29.565624Q264.8781 30.8 264.8781 32.284374Q264.8781 33.878124 264.3 35.159374Q263.7375 36.425 262.64374 37.1125Q261.55 37.784374 260.34686 37.784374Q259.47186 37.784374 258.76874 37.409374Q258.08124 37.034374 257.6281 36.471874L257.6281 41.51875L255.8625 41.51875ZM257.45624 32.425Q257.45624 34.425 258.26874 35.378124Q259.08124 36.33125 260.2375 36.33125Q261.40936 36.33125 262.2375 35.346874Q263.08124 34.3625 263.08124 32.26875Q263.08124 30.3 262.2531 29.315624Q261.4406 28.315624 260.3156 28.315624Q259.1906 28.315624 258.3156 29.378124Q257.45624 30.425 257.45624 32.425ZM273.64374 36.26875Q272.65936 37.096874 271.7531 37.440624Q270.84686 37.784374 269.8156 37.784374Q268.1125 37.784374 267.1906 36.95625Q266.26874 36.1125 266.26874 34.815624Q266.26874 34.05 266.6125 33.425Q266.97186 32.8 267.53436 32.425Q268.09686 32.034374 268.8 31.83125Q269.3156 31.70625 270.3625 31.565624Q272.4875 31.315624 273.4875 30.971874Q273.5031 30.6125 273.5031 30.503124Q273.5031 29.440624 273.0031 28.9875Q272.33124 28.39375 271.0031 28.39375Q269.7531 28.39375 269.15936 28.83125Q268.58124 29.26875 268.3 30.378124L266.58124 30.14375Q266.8156 29.034374 267.34686 28.3625Q267.8781 27.675 268.89374 27.315624Q269.90936 26.940624 271.2531 26.940624Q272.58124 26.940624 273.40936 27.253124Q274.2375 27.565624 274.6281 28.05Q275.01874 28.51875 275.175 29.2375Q275.26874 29.690624 275.26874 30.8625L275.26874 33.20625Q275.26874 35.659374 275.3781 36.315624Q275.4875 36.95625 275.83124 37.55L273.9875 37.55Q273.72186 37.003124 273.64374 36.26875ZM273.4875 32.346874Q272.53436 32.7375 270.6125 33.003124Q269.53436 33.159374 269.08124 33.3625Q268.64374 33.55 268.39374 33.925Q268.14374 34.3 268.14374 34.76875Q268.14374 35.471874 268.675 35.940624Q269.20624 36.409374 270.2375 36.409374Q271.2531 36.409374 272.03436 35.971874Q272.83124 35.51875 273.20624 34.753124Q273.4875 34.14375 273.4875 32.9875L273.4875 32.346874ZM277.8781 25.253124L277.8781 23.2375L279.64374 23.2375L279.64374 25.253124L277.8781 25.253124ZM277.8781 37.55L277.8781 27.175L279.64374 27.175L279.64374 37.55L277.8781 37.55ZM281.84686 37.55L281.84686 27.175L283.425 27.175L283.425 28.753124Q284.03436 27.64375 284.55 27.3Q285.0656 26.940624 285.675 26.940624Q286.5656 26.940624 287.4875 27.503124L286.8781 29.14375Q286.2375 28.753124 285.59686 28.753124Q285.01874 28.753124 284.55 29.1125Q284.09686 29.45625 283.89374 30.065624Q283.6125 31.003124 283.6125 32.1125L283.6125 37.55L281.84686 37.55ZM288.15936 34.45625L289.90936 34.175Q290.05 35.221874 290.72186 35.784374Q291.39374 36.33125 292.59686 36.33125Q293.8 36.33125 294.3781 35.846874Q294.97186 35.346874 294.97186 34.690624Q294.97186 34.096874 294.45624 33.753124Q294.09686 33.51875 292.65936 33.159374Q290.72186 32.659374 289.97186 32.315624Q289.2375 31.95625 288.84686 31.33125Q288.45624 30.690624 288.45624 29.925Q288.45624 29.2375 288.76874 28.64375Q289.09686 28.05 289.64374 27.659374Q290.05 27.3625 290.7531 27.159374Q291.47186 26.940624 292.28436 26.940624Q293.5031 26.940624 294.425 27.3Q295.34686 27.64375 295.78436 28.253124Q296.22186 28.846874 296.39374 29.846874L294.675 30.08125Q294.55 29.284374 293.9875 28.846874Q293.425 28.39375 292.40936 28.39375Q291.1906 28.39375 290.675 28.8Q290.15936 29.190624 290.15936 29.721874Q290.15936 30.065624 290.3781 30.346874Q290.58124 30.628124 291.05 30.815624Q291.3156 30.909374 292.59686 31.253124Q294.47186 31.753124 295.20624 32.08125Q295.9406 32.39375 296.3625 33.003124Q296.78436 33.596874 296.78436 34.503124Q296.78436 35.378124 296.26874 36.159374Q295.7531 36.940624 294.78436 37.3625Q293.8156 37.784374 292.59686 37.784374Q290.58124 37.784374 289.51874 36.940624Q288.45624 36.096874 288.15936 34.45625Z" fill-rule="nonzero"/></svg>